<?xml version="1.0" encoding="UTF-8"?>
<svg version="1.1" xmlns="http://www.w3.org/2000/svg" width="512" height="512">
<path d="M0 0 C1.05272286 0.92060888 2.10101986 1.84630664 3.14453125 2.77734375 C3.6442041 3.22190918 4.14387695 3.66647461 4.65869141 4.12451172 C15.99407446 14.40107462 27.45481408 29.14275127 30.73828125 44.56640625 C32.47392898 47.29523017 33.27023554 47.33527834 36.3359375 48.11328125 C38.12313085 48.4756436 39.91383787 48.82094664 41.70703125 49.15234375 C68.27880165 54.78520518 94.33628395 69.05302328 109.88208008 91.95117188 C123.17192559 112.55770632 128.43600985 135.63103008 123.62719727 159.81274414 C121.09272672 171.20449263 116.81095537 182.16710151 110.14453125 191.77734375 C109.19320312 193.17146484 109.19320312 193.17146484 108.22265625 194.59375 C95.14159182 212.9024661 78.55755241 225.60635324 58.14453125 234.77734375 C57.0771875 235.26074219 56.00984375 235.74414062 54.91015625 236.2421875 C48.60693726 238.87386142 42.24007433 240.58968479 35.58203125 242.02734375 C34.82688232 242.19073242 34.0717334 242.35412109 33.29370117 242.52246094 C22.68136356 244.6560742 11.97836656 244.92564815 1.18547058 244.91105652 C-0.06376605 244.91332208 -1.31300269 244.91558763 -2.60009497 244.91792184 C-6.03291192 244.92398278 -9.4657043 244.92391307 -12.89852536 244.92272747 C-16.61438624 244.92252201 -20.33023953 244.92805592 -24.0460968 244.93278503 C-31.31264353 244.94106031 -38.57918215 244.94383844 -45.8457332 244.94439741 C-51.75636061 244.94487398 -57.66698536 244.9469357 -63.57761192 244.95009804 C-80.36401424 244.9588954 -97.15041018 244.96351875 -113.93681482 244.96276756 C-114.84010978 244.96272761 -115.74340473 244.96268765 -116.67407227 244.96264648 C-117.57847971 244.9626056 -118.48288716 244.96256472 -119.41470089 244.9625226 C-134.06989756 244.9621162 -148.72506853 244.97168678 -163.38025776 244.98578485 C-178.45620736 245.00017241 -193.53214444 245.00705375 -208.60810107 245.00619107 C-217.06086132 245.00585997 -225.51359461 245.00856914 -233.96634865 245.01936913 C-241.16259858 245.02850541 -248.35880933 245.03062373 -255.55506257 245.0238597 C-259.22073902 245.02061047 -262.88634042 245.02047955 -266.55200958 245.02921295 C-295.51796013 245.09391818 -320.68648652 243.4023134 -343.85546875 223.77734375 C-344.51933594 223.25785156 -345.18320312 222.73835937 -345.8671875 222.203125 C-360.45582155 210.36598185 -369.07180066 192.20163509 -371.08300781 173.68212891 C-372.47463518 154.82514042 -367.1940703 136.66330565 -355.35546875 121.83984375 C-353.87524733 120.13496815 -352.37680065 118.44563794 -350.85546875 116.77734375 C-350.26894531 116.12121094 -349.68242187 115.46507812 -349.078125 114.7890625 C-330.05200514 94.59899178 -303.24073802 89.89138845 -276.85546875 88.77734375 C-276.48808594 87.88595703 -276.48808594 87.88595703 -276.11328125 86.9765625 C-268.58286671 70.27981579 -254.12633563 60.89474145 -237.85546875 53.77734375 C-233.57187878 52.20815607 -229.27255936 50.91316705 -224.85546875 49.77734375 C-224.02789062 49.56335938 -223.2003125 49.349375 -222.34765625 49.12890625 C-214.95296457 47.44496656 -207.40745154 47.15997754 -199.85546875 46.77734375 C-199.73171875 46.24109375 -199.60796875 45.70484375 -199.48046875 45.15234375 C-192.63512553 19.1400395 -173.87573526 -0.85582208 -151.2578125 -14.41796875 C-105.74783431 -40.58544108 -39.9145428 -33.75748083 0 0 Z " fill="#DBDBD9" transform="translate(378.85546875,29.22265625)"/>
<path d="M0 0 C0.66 0 1.32 0 2 0 C2.48377991 1.85296835 2.96178636 3.70744441 3.4375 5.5625 C3.83775391 7.11130859 3.83775391 7.11130859 4.24609375 8.69140625 C9.18999514 30.38821703 5.26203276 53.99261803 -5.8125 73.25 C-6.84914181 74.85038259 -7.91318371 76.43325782 -9 78 C-9.95132813 79.39412109 -9.95132813 79.39412109 -10.921875 80.81640625 C-24.00293943 99.12512235 -40.58697884 111.82900949 -61 121 C-62.06734375 121.48339844 -63.1346875 121.96679688 -64.234375 122.46484375 C-70.53759399 125.09651767 -76.90445692 126.81234104 -83.5625 128.25 C-84.31764893 128.41338867 -85.07279785 128.57677734 -85.85083008 128.74511719 C-96.46316769 130.87873045 -107.16616469 131.1483044 -117.95906067 131.13371277 C-119.2082973 131.13597833 -120.45753394 131.13824388 -121.74462622 131.14057809 C-125.17744317 131.14663903 -128.61023555 131.14656932 -132.04305661 131.14538372 C-135.75891749 131.14517826 -139.47477078 131.15071217 -143.19062805 131.15544128 C-150.45717478 131.16371656 -157.7237134 131.16649469 -164.99026445 131.16705366 C-170.90089186 131.16753023 -176.81151661 131.16959195 -182.72214317 131.17275429 C-199.50854549 131.18155165 -216.29494143 131.186175 -233.08134607 131.18542381 C-233.98464103 131.18538386 -234.88793598 131.1853439 -235.81860352 131.18530273 C-236.72301096 131.18526185 -237.62741841 131.18522097 -238.55923214 131.18517885 C-253.21442881 131.18477245 -267.86959978 131.19434303 -282.52478901 131.2084411 C-297.60073861 131.22282866 -312.67667569 131.22971 -327.75263232 131.22884732 C-336.20539257 131.22851622 -344.65812586 131.23122539 -353.1108799 131.24202538 C-360.30712983 131.25116166 -367.50334058 131.25327998 -374.69959382 131.24651595 C-378.36527027 131.24326672 -382.03087167 131.2431358 -385.69654083 131.2518692 C-414.66249138 131.31657443 -439.83101777 129.62496965 -463 110 C-463.66386719 109.48050781 -464.32773437 108.96101563 -465.01171875 108.42578125 C-473.5736345 101.47868655 -481.37565886 91.50876802 -485 81 C-485.12109375 78.21484375 -485.12109375 78.21484375 -485 76 C-479.86158311 77.6617533 -474.89603713 79.6334159 -469.90234375 81.68359375 C-459.21690366 85.51802735 -448.82196356 86.43635827 -437.54673767 86.3742218 C-436.02614091 86.37696835 -434.50554606 86.38102551 -432.98495585 86.38626546 C-428.84163967 86.39677393 -424.6985417 86.38877469 -420.55523527 86.37751496 C-416.07324732 86.36862494 -411.59128646 86.37713024 -407.10929871 86.38337708 C-398.34324283 86.39283903 -389.57726958 86.3862882 -380.81121986 86.37411413 C-370.59357769 86.3604556 -360.37595493 86.36213538 -350.15830595 86.36424746 C-331.92282182 86.36743351 -313.68737682 86.35579144 -295.4519043 86.33618164 C-277.77383228 86.31717636 -260.09580611 86.31009532 -242.41772461 86.31567383 C-223.14663417 86.32173708 -203.87556386 86.32154475 -184.60447508 86.310188 C-182.54808494 86.30898076 -180.49169479 86.30777477 -178.43530464 86.30657005 C-176.91780085 86.30566475 -176.91780085 86.30566475 -175.36964042 86.30474115 C-168.25426192 86.30086851 -161.13889093 86.30125308 -154.02351189 86.3031559 C-145.34827808 86.30528205 -136.67308433 86.30002192 -127.9978618 86.28554235 C-123.5751101 86.27831877 -119.15241663 86.27420389 -114.72966003 86.27878571 C-110.67522821 86.28288367 -106.62091623 86.27763587 -102.56650252 86.26515963 C-101.10572101 86.2622493 -99.64492808 86.26263865 -98.18414962 86.26680271 C-86.03776768 86.29826329 -74.88532122 85.16709817 -63.5 80.8125 C-62.68539307 80.50497803 -61.87078613 80.19745605 -61.03149414 79.88061523 C-48.93308264 75.17521145 -38.06944684 68.36030374 -29 59 C-28.34 58.34 -27.68 57.68 -27 57 C-26.34 57 -25.68 57 -25 57 C-24.73574219 56.4225 -24.47148437 55.845 -24.19921875 55.25 C-22.94536144 52.89748596 -21.51063673 51.0517533 -19.8125 49 C-12.06352233 39.09674223 -7.4494448 28.73120825 -3.61230469 16.87646484 C-3.05705594 15.17485326 -2.46605844 13.48501012 -1.87109375 11.796875 C-1.05711829 9.18339324 -0.62210426 6.84314688 -0.375 4.125 C-0.30023438 3.34382812 -0.22546875 2.56265625 -0.1484375 1.7578125 C-0.09945313 1.17773438 -0.05046875 0.59765625 0 0 Z " fill="#ACAEA8" transform="translate(498,143)"/>
<path d="M0 0 C15.32824385 -0.81750634 27.70340445 4.22171613 39.0625 14.375 C41.50030691 16.63378046 43.91239021 18.91608994 46.3125 21.21484375 C56.07334851 30.31480147 65.5017566 32.60812872 78.59765625 32.33203125 C89.90858086 31.74183269 97.2539714 25.68356063 105 18 C116.17896818 7.05542954 129.09392743 -0.26424143 145.04199219 -0.46826172 C145.95625977 -0.45811035 146.87052734 -0.44795898 147.8125 -0.4375 C148.77446289 -0.42992676 149.73642578 -0.42235352 150.72753906 -0.41455078 C169.26853024 0.01293421 181.29462279 8.74670798 194.3125 21.21484375 C203.88802239 30.14202348 213.03740989 32.51224917 225.87890625 32.27734375 C237.79014154 31.72835079 245.8612583 25.3012866 253.8125 17.0625 C264.22507115 6.47479386 277.34775698 -0.02679474 292.26049805 -0.24145508 C309.06037425 -0.2926876 309.06037425 -0.2926876 317 3 C317.83273437 3.3403125 318.66546875 3.680625 319.5234375 4.03125 C328.1067509 7.93995887 334.97640096 13.77676968 341.375 20.625 C348.04742751 27.5118984 357.13230691 32.04719821 366.75024414 32.29248047 C378.67334738 32.39857862 387.96276455 30.21407641 397 22 C398.6129099 20.36273408 400.21648154 18.71623611 401.8125 17.0625 C409.66334579 9.07960634 418.31570333 4.22087387 429 1 C429.96873047 0.70416016 429.96873047 0.70416016 430.95703125 0.40234375 C435.22807407 -0.43879853 439.66985613 -0.05154933 444 0 C444 5.94 444 11.88 444 18 C442.370625 18.2475 440.74125 18.495 439.0625 18.75 C427.68595933 20.85028443 419.61076002 26.16240783 411.6875 34.4375 C400.3692304 45.96932186 385.42582448 51.88102934 369.328125 52.03515625 C351.39204714 51.28476932 337.87539777 44.41229513 325.58105469 31.64135742 C316.93029208 22.68873285 308.09753892 18.94389064 295.5625 18.5625 C283.08145319 18.86415672 274.26117437 23.45034148 265.7109375 32.39453125 C264.91945313 33.23371094 264.12796875 34.07289063 263.3125 34.9375 C252.52405496 45.9440629 238.17142767 51.74710064 222.8125 52.1875 C205.06096953 51.8866266 190.64130815 44.9998488 178.375 32.375 C169.47765053 23.26551176 160.88239371 18.94636123 148 18.625 C135.82155075 18.9545035 127.01102184 22.89803985 118.41796875 31.62109375 C117.53753906 32.55050781 116.65710938 33.47992188 115.75 34.4375 C104.79281078 45.70465214 90.55159947 51.73619966 74.8125 52.1875 C54.98335911 51.85141287 40.84557173 43.15881351 27.3359375 29.265625 C19.45384692 21.62078798 10.68823992 19.33602999 0 18 C0 12.06 0 6.12 0 0 Z " fill="#6E9AE0" transform="translate(34,384)"/>
<path d="M0 0 C17.73444782 1.50787818 30.98862259 6.61926492 43.625 19.625 C52.52234947 28.73448824 61.11760629 33.05363877 74 33.375 C86.17844925 33.0454965 94.98897816 29.10196015 103.58203125 20.37890625 C104.46246094 19.44949219 105.34289062 18.52007812 106.25 17.5625 C117.20718922 6.29534786 131.44840053 0.26380034 147.1875 -0.1875 C164.93903047 0.1133734 179.35869185 7.0001512 191.625 19.625 C200.52234947 28.73448824 209.11760629 33.05363877 222 33.375 C234.17844925 33.0454965 242.98897816 29.10196015 251.58203125 20.37890625 C252.46246094 19.44949219 253.34289062 18.52007812 254.25 17.5625 C265.20718922 6.29534786 279.44840053 0.26380034 295.1875 -0.1875 C311.64733975 0.09148033 326.10712 5.97898052 337.7109375 17.75 C339.06058594 19.173125 339.06058594 19.173125 340.4375 20.625 C347.59155159 28.01512503 355.87046401 32.54733105 366.19921875 33.203125 C378.75120826 33.37179675 387.30938073 31.17692377 397 23 C398.76809947 21.20515167 400.5173283 19.39157218 402.25 17.5625 C413.79051503 5.69552062 427.64313998 0.81503254 444 0 C444.02683987 2.97922593 444.04676037 5.95821295 444.0625 8.9375 C444.07087891 9.78763672 444.07925781 10.63777344 444.08789062 11.51367188 C444.09272461 12.72700195 444.09272461 12.72700195 444.09765625 13.96484375 C444.10551147 15.08814087 444.10551147 15.08814087 444.11352539 16.23413086 C444 18 444 18 443 19 C441.39884424 19.2493357 439.79379841 19.47378648 438.1875 19.6875 C427.23615419 21.68251261 419.91234428 26.6298061 412.42993164 34.52905273 C402.86803693 44.52777735 389.32691165 51.67679181 375.375 52.23828125 C353.02639535 52.70027866 339.68495223 46.10704039 323.6875 30.78515625 C313.92665149 21.68519853 304.4982434 19.39187128 291.40234375 19.66796875 C280.08152924 20.25868336 272.7642449 26.32558934 265 34 C251.23671911 47.02892339 238.0242876 52.65127446 219.10351562 52.47265625 C200.6466835 51.8883381 188.66161939 43.21138209 175.6875 30.78515625 C165.92665149 21.68519853 156.4982434 19.39187128 143.40234375 19.66796875 C132.09141914 20.25816731 124.7460286 26.31643937 117 34 C105.82103182 44.94457046 92.90607257 52.26424143 76.95800781 52.46826172 C76.04374023 52.45811035 75.12947266 52.44795898 74.1875 52.4375 C73.22553711 52.42992676 72.26357422 52.42235352 71.27246094 52.41455078 C54.49430703 52.02771014 42.74090772 45.00316208 30.859375 33.68359375 C22.48264142 25.8218233 14.69011387 20.97757558 3.15234375 19.359375 C1 19 1 19 0 18 C-0.08631874 16.65732587 -0.10706473 15.31025678 -0.09765625 13.96484375 C-0.09443359 13.15595703 -0.09121094 12.34707031 -0.08789062 11.51367188 C-0.07951172 10.66353516 -0.07113281 9.81339844 -0.0625 8.9375 C-0.05798828 8.08349609 -0.05347656 7.22949219 -0.04882812 6.34960938 C-0.03700373 4.23304337 -0.01906769 2.11651315 0 0 Z " fill="#6E9AE0" transform="translate(34,460)"/>
<path d="M0 0 C19.51924029 0 32.44313431 7.76306034 46 21 C54.53853888 29.01106158 64.03652693 33.56630073 75.96875 33.1875 C89.50592132 31.93791495 97.68606947 25.3414783 107.07421875 15.91796875 C111.65134322 11.49777426 116.41716223 8.47107733 122.0625 5.625 C122.72330566 5.29105225 123.38411133 4.95710449 124.06494141 4.61303711 C136.81140809 -1.52643203 152.65197801 -2.17830191 166.1796875 1.91015625 C177.4735515 6.27440563 185.49184415 12.69262659 194 21 C202.45878757 28.93623698 211.95720485 33.62797659 223.83984375 33.25 C236.40957756 31.79527493 244.76212985 26.51750414 253.34521484 17.59399414 C264.04632367 6.637614 277.20043286 0.01081729 292.58544922 -0.24194336 C314.0070006 -0.31161724 327.96644925 7.21583379 343 22 C350.67965038 29.4716908 359.01861981 32.52668609 369.6875 33.25 C380.79322049 33.05925289 390.67094575 28.56409967 398.34277344 20.71655273 C399.36651097 19.65317718 400.38929407 18.58888195 401.41113281 17.52368164 C410.20885312 8.49554485 422.31264429 1.4880232 435 0 C437.97 0 440.94 0 444 0 C444 5.94 444 11.88 444 18 C441.916875 18.37125 439.83375 18.7425 437.6875 19.125 C427.00656336 21.48424303 420.13546203 25.55034918 412.6875 33.375 C401.16713932 45.4458216 386.75875906 51.96954659 369.875 52.4375 C352.87145826 51.84390789 340.05256422 45.77273686 328 34 C317.88101215 24.13263885 307.61238243 18.55081633 293.32421875 18.7265625 C279.89220167 19.83142877 271.7921723 25.96956117 262.875 35.4375 C251.59051938 46.87936528 237.43664831 51.87562682 221.4375 52.375 C202.44813668 51.82191175 189.20584232 43.69190166 176.4375 30.25 C168.95849355 22.70109629 158.68943296 18.97704999 148.1875 18.5625 C134.40652586 18.98762002 125.30770291 24.49853383 115.96948242 34.11474609 C104.19029265 46.23527279 90.80169373 51.76464677 73.875 52.25 C56.41948058 52.03030811 43.31045456 45.01176068 31 33 C21.98158354 24.23159905 12.49406692 19.64395617 0 18 C0 12.06 0 6.12 0 0 Z " fill="#6E9AE0" transform="translate(34,307)"/>
</svg>
