<?xml version="1.0" encoding="UTF-8"?>
<svg version="1.1" xmlns="http://www.w3.org/2000/svg" width="512" height="512">
<path d="M0 0 C1.17369141 0.00684814 2.34738281 0.01369629 3.55664062 0.02075195 C17.31285527 0.27315089 29.54424325 2.88493585 41.75 9.4375 C42.70003906 9.92863281 43.65007812 10.41976563 44.62890625 10.92578125 C64.48813037 21.77456209 77.0455887 38.28218422 86.75 58.4375 C87.47703125 58.293125 88.2040625 58.14875 88.953125 58 C105.31056149 54.98016557 120.63800142 55.8337922 134.75 65.4375 C147.95513415 75.5594971 155.12022323 87.66764241 157.35546875 104.06640625 C157.50540915 106.38672767 157.50540915 106.38672767 158.75 107.4375 C160.70762977 107.75072076 162.66628533 108.05862213 164.62915039 108.3371582 C177.16360167 110.1418073 187.52891531 113.76678193 197.75 121.4375 C198.56597656 122.04335937 199.38195312 122.64921875 200.22265625 123.2734375 C210.80610858 132.33562079 217.62829929 145.90018361 218.97143555 159.71508789 C219.08807806 162.02281891 219.1295603 164.31436721 219.125 166.625 C219.12411377 167.44508545 219.12322754 168.2651709 219.12231445 169.11010742 C218.95418319 177.87426956 217.06738553 185.8193212 213.11328125 193.69921875 C211.60143983 196.22608476 211.60143983 196.22608476 211.75 198.4375 C213.11781472 199.66611919 213.11781472 199.66611919 214.875 200.9375 C221.26329854 206.23732577 225.00246968 213.3907325 226.75 221.4375 C226.97332796 225.08871816 226.9399766 228.71881695 226.875 232.375 C226.86597656 233.34501953 226.85695313 234.31503906 226.84765625 235.31445312 C226.82426107 237.68906407 226.79148176 240.06314776 226.75 242.4375 C229.77978323 243.44742774 232.01560457 243.56955435 235.1875 243.6875 C246.91682058 244.62244584 256.78942803 249.9802137 264.71875 258.5703125 C274.47283645 270.43227356 275.91730192 282.5456537 274.75 297.4375 C272.3953186 309.19745168 264.30660256 318.54785629 254.75 325.4375 C246.56037395 330.16428205 239.31707509 331.73879364 229.94874573 331.67800903 C228.9790464 331.67971788 228.00934707 331.68142673 227.01026291 331.68318737 C223.77051932 331.68647391 220.53098418 331.67549223 217.29125977 331.66455078 C214.96513372 331.66398649 212.63900731 331.66430358 210.31288147 331.66543579 C204.00354861 331.66600959 197.69429181 331.65425073 191.38497663 331.64028788 C185.45767056 331.62905216 179.53036741 331.62704108 173.60305213 331.62498413 C161.86596899 331.62061122 150.12891372 331.60731309 138.3918457 331.58837891 C126.9930841 331.57000965 115.59433007 331.55585826 104.19555664 331.54736328 C103.1409188 331.54657511 103.1409188 331.54657511 102.06497515 331.54577102 C98.53762882 331.54316087 95.01028244 331.54063347 91.48293602 331.53814721 C62.23860589 331.51742729 32.99430332 331.48206367 3.75 331.4375 C3.46423096 332.03788086 3.17846191 332.63826172 2.8840332 333.25683594 C1.27382489 336.35315039 -0.89196458 338.97280217 -3.0625 341.6875 C-3.54460937 342.2959375 -4.02671875 342.904375 -4.5234375 343.53125 C-8.77513923 348.88121739 -13.09118672 354.17893971 -17.41137695 359.47363281 C-20.90383341 363.7598059 -24.34737416 368.07975112 -27.75 372.4375 C-32.2320011 378.17760668 -36.80956557 383.83443246 -41.4140625 389.4765625 C-44.90530083 393.76201618 -48.34818888 398.08079453 -51.75 402.4375 C-56.2320011 408.17760668 -60.80956557 413.83443246 -65.4140625 419.4765625 C-69.36417451 424.32527819 -73.24280538 429.22472875 -77.09033203 434.1550293 C-80.54374711 438.56855599 -84.07496146 442.91399846 -87.625 447.25 C-92.09173822 452.71037441 -96.43068295 458.24964341 -100.6875 463.875 C-105.68268258 470.47221115 -110.85620711 476.89342971 -116.14672852 483.25561523 C-119.88564229 487.75770082 -123.53272949 492.31787544 -127.125 496.9375 C-128.01473431 498.0658071 -128.9053262 499.1934386 -129.796875 500.3203125 C-131.35206664 502.29649551 -132.88617678 504.28960539 -134.390625 506.3046875 C-138.91580471 512.02351698 -138.91580471 512.02351698 -142.56640625 513.15625 C-146.6732301 513.4268809 -148.81425109 512.71317788 -152.3125 510.5 C-154.92333755 506.37319226 -154.72033839 503.21305481 -154.25 498.4375 C-153.59649026 495.73337908 -152.61509074 493.24582476 -151.53125 490.6875 C-151.09773224 489.61032967 -151.09773224 489.61032967 -150.65545654 488.51139832 C-150.02932016 486.96097769 -149.39609422 485.41340473 -148.75646973 483.86849976 C-147.72313661 481.3726149 -146.70848534 478.86981557 -145.69824219 476.36450195 C-144.26968853 472.82364087 -142.83495379 469.28537857 -141.39648438 465.74853516 C-138.34942648 458.23413699 -135.40792109 450.67894536 -132.47045898 443.1211853 C-131.49308707 440.60721876 -130.51344346 438.09414819 -129.53320312 435.58129883 C-125.77521458 425.94447276 -122.03272108 416.30167959 -118.296875 406.65625 C-117.66655365 405.02916862 -117.66655365 405.02916862 -117.02349854 403.36921692 C-114.97912334 398.09144978 -112.93606017 392.81318192 -110.89550781 387.53393555 C-106.0982088 375.13392605 -101.21674554 362.77062614 -96.25 350.4375 C-97.48564697 350.45321045 -98.72129395 350.4689209 -99.99438477 350.48510742 C-104.59946112 350.53960151 -109.20450921 350.57392082 -113.80981445 350.60229492 C-115.7991211 350.61733724 -117.78839483 350.63777623 -119.77758789 350.66381836 C-122.64477689 350.70040246 -125.51152559 350.71727218 -128.37890625 350.73046875 C-129.26147598 350.74595261 -130.14404572 350.76143646 -131.05335999 350.77738953 C-137.79903526 350.77920845 -142.08512813 349.27754178 -147.9375 345.875 C-151.72678549 341.88088826 -154.31108094 336.93785167 -154.21304321 331.31962585 C-153.65617158 324.79325964 -152.0531903 319.16936457 -149.75 313.05859375 C-149.39791977 312.0957547 -149.04583954 311.13291565 -148.68309021 310.14089966 C-147.54950134 307.04817841 -146.39993874 303.96167452 -145.25 300.875 C-144.470269 298.75620693 -143.69170712 296.63698325 -142.91430664 294.51733398 C-141.39097295 290.3673519 -139.86226115 286.21942327 -138.32861328 282.07324219 C-135.73876235 275.06402743 -133.20623984 268.03504564 -130.6875 261 C-129.99892404 259.08455412 -129.31015318 257.16917827 -128.62109375 255.25390625 C-128.16399892 253.98179368 -127.70693819 252.70966885 -127.25 251.4375 C-130.43567863 247.67830682 -133.65639607 243.99943875 -137.0625 240.4375 C-142.45909034 234.43548947 -146.27571947 227.4200901 -150.25 220.4375 C-153.95226228 220.9861806 -157.28889966 221.76584557 -160.8125 223 C-176.57251711 227.35502525 -193.12295576 224.94696731 -207.375 217.375 C-220.81655961 209.02951385 -230.34812195 196.51308727 -234.58984375 181.25390625 C-236.80374806 168.45518133 -236.36632519 155.45820866 -231.25 143.4375 C-230.94964844 142.69628906 -230.64929688 141.95507812 -230.33984375 141.19140625 C-223.84967394 126.77817199 -211.57045041 117.27405114 -197.25 111.4375 C-188.73666471 108.71283349 -180.14582175 107.85972395 -171.25 107.4375 C-171.3221875 106.87804687 -171.394375 106.31859375 -171.46875 105.7421875 C-173.52654646 87.96511255 -172.38945582 72.37832159 -161.2109375 57.7734375 C-152.38632324 47.45206888 -141.81419156 40.55628613 -128.25 38.4375 C-113.46018559 37.49773054 -99.10253659 39.28168204 -87.25390625 49.08984375 C-85.09928339 50.8095368 -85.09928339 50.8095368 -81.25 50.4375 C-79.51874365 48.13918864 -79.51874365 48.13918864 -78.0625 45.125 C-66.91353224 24.98111133 -48.32083088 10.02509004 -26.25 3.4375 C-17.41725072 0.99201266 -9.15760255 -0.0829493 0 0 Z " fill="#E5F5FE" transform="translate(236.25,-0.4375)"/>
<path d="M0 0 C1.17369141 0.00684814 2.34738281 0.01369629 3.55664062 0.02075195 C17.31285527 0.27315089 29.54424325 2.88493585 41.75 9.4375 C42.70003906 9.92863281 43.65007812 10.41976563 44.62890625 10.92578125 C64.48813037 21.77456209 77.0455887 38.28218422 86.75 58.4375 C87.47703125 58.293125 88.2040625 58.14875 88.953125 58 C105.31056149 54.98016557 120.63800142 55.8337922 134.75 65.4375 C147.95513415 75.5594971 155.12022323 87.66764241 157.35546875 104.06640625 C157.50540915 106.38672767 157.50540915 106.38672767 158.75 107.4375 C160.70762977 107.75072076 162.66628533 108.05862213 164.62915039 108.3371582 C177.16360167 110.1418073 187.52891531 113.76678193 197.75 121.4375 C198.56597656 122.04335937 199.38195312 122.64921875 200.22265625 123.2734375 C210.80610858 132.33562079 217.62829929 145.90018361 218.97143555 159.71508789 C219.08807937 162.0228449 219.12979988 164.31433906 219.125 166.625 C219.12338867 167.44581055 219.12177734 168.26662109 219.12011719 169.11230469 C218.91725445 179.33101764 216.46902536 188.85896196 210.75 197.4375 C207.45956376 196.36810822 204.27625118 195.23749517 201.0859375 193.890625 C196.63663979 192.22290548 192.59521265 191.93678061 187.875 192 C187.08633545 192.00684814 186.2976709 192.01369629 185.48510742 192.02075195 C177.35418134 192.24421642 171.37749502 194.36972072 164.875 199.25 C161.75 201.4375 161.75 201.4375 159.79296875 201.421875 C156.73771404 199.94974462 155.69744272 197.73893938 153.9375 194.875 C144.35533267 179.99093493 131.17566213 169.40578432 113.875 164.5625 C94.74286068 160.74985279 76.17583148 163.0012104 59.5625 173.4296875 C46.76987549 182.5622 39.34410421 193.37973937 32.75 207.4375 C31.76386719 207.28023437 30.77773438 207.12296875 29.76171875 206.9609375 C17.76998988 205.26805842 7.59266665 205.62552578 -3.25 211.4375 C-3.91 211.7675 -4.57 212.0975 -5.25 212.4375 C-3.94810002 208.14750908 -2.29678782 204.47866 -0.046875 200.60546875 C0.59668945 199.48986572 1.24025391 198.3742627 1.90332031 197.22485352 C2.24480103 196.63858185 2.58628174 196.05231018 2.93811035 195.44827271 C4.76116059 192.3180814 6.56648096 189.17766365 8.375 186.0390625 C8.92791718 185.08136711 8.92791718 185.08136711 9.49200439 184.10432434 C13.05089957 177.93420558 16.53229868 171.72178106 20 165.5 C24.46570489 157.50106708 28.95838352 149.51861142 33.5 141.5625 C34.00176758 140.68215088 34.50353516 139.80180176 35.02050781 138.89477539 C35.48295898 138.08645264 35.94541016 137.27812988 36.421875 136.4453125 C36.8250293 135.74035645 37.22818359 135.03540039 37.64355469 134.30908203 C38.6236589 132.65120938 39.68169494 131.03995758 40.75 129.4375 C41.17632651 125.60056137 41.14451287 123.21573841 39.38781738 119.75038147 C35.31499711 116.17926597 31.41908748 116.74606394 26.16992188 116.80639648 C24.55471397 116.79566353 24.55471397 116.79566353 22.90687561 116.78471375 C19.3437369 116.76779056 15.78184989 116.78725198 12.21875 116.80859375 C9.74540096 116.80776539 7.27205197 116.80530728 4.79870605 116.80128479 C-0.38648029 116.79842429 -5.57123527 116.8131535 -10.75634766 116.84057617 C-17.40821213 116.87465908 -24.05896276 116.86864311 -30.71091461 116.8499136 C-35.81868945 116.83935311 -40.92628426 116.84827293 -46.03404236 116.86329842 C-48.48688727 116.86848763 -50.93975092 116.86798951 -53.39259338 116.86175346 C-56.81878186 116.85631303 -60.24385986 116.87664065 -63.66992188 116.90405273 C-64.68718857 116.89752686 -65.70445526 116.89100098 -66.75254822 116.88427734 C-72.13280955 116.88563581 -72.13280955 116.88563581 -76.81008911 119.25306702 C-78.87199101 122.38109845 -80.18520331 125.68837632 -81.4609375 129.1875 C-81.75696869 129.97406982 -82.05299988 130.76063965 -82.35800171 131.57104492 C-83.33653509 134.18807714 -84.29560178 136.8115749 -85.25 139.4375 C-85.74167664 140.78545654 -85.74167664 140.78545654 -86.24328613 142.16064453 C-88.42039578 148.14526594 -90.56566307 154.14099091 -92.70126343 160.14053345 C-94.75226163 165.90168347 -96.8118957 171.65974552 -98.87109375 177.41796875 C-99.30140396 178.62172653 -99.73171417 179.82548431 -100.17506409 181.0657196 C-105.38952958 195.6414849 -110.66268608 210.19598897 -115.9375 224.75 C-116.41148587 226.05802148 -116.88546459 227.36604556 -117.35943604 228.67407227 C-119.98840555 235.92899016 -122.61853056 243.18348849 -125.25 250.4375 C-136.7911217 244.88730361 -144.38850334 231.39595027 -150.25 220.4375 C-153.03363456 220.81366683 -155.70115049 221.24641906 -158.359375 222.171875 C-173.35666137 227.2346532 -190.17914582 225.62740362 -204.31640625 219 C-218.54540276 211.44027772 -228.11939383 199.48361904 -233.6875 184.5 C-237.39510989 171.16223456 -236.66361128 156.15667666 -231.25 143.4375 C-230.94964844 142.69628906 -230.64929688 141.95507812 -230.33984375 141.19140625 C-223.84967394 126.77817199 -211.57045041 117.27405114 -197.25 111.4375 C-188.73666471 108.71283349 -180.14582175 107.85972395 -171.25 107.4375 C-171.3221875 106.87804687 -171.394375 106.31859375 -171.46875 105.7421875 C-173.52654646 87.96511255 -172.38945582 72.37832159 -161.2109375 57.7734375 C-152.38632324 47.45206888 -141.81419156 40.55628613 -128.25 38.4375 C-113.46018559 37.49773054 -99.10253659 39.28168204 -87.25390625 49.08984375 C-85.09928339 50.8095368 -85.09928339 50.8095368 -81.25 50.4375 C-79.51874365 48.13918864 -79.51874365 48.13918864 -78.0625 45.125 C-66.91353224 24.98111133 -48.32083088 10.02509004 -26.25 3.4375 C-17.41725072 0.99201266 -9.15760255 -0.0829493 0 0 Z " fill="#A2DAFE" transform="translate(236.25,-0.4375)"/>
<path d="M0 0 C1.6130175 -0.01555183 1.6130175 -0.01555183 3.25862122 -0.03141785 C6.81147475 -0.05851144 10.36309603 -0.04882089 13.91601562 -0.03637695 C16.38554225 -0.04228438 18.855066 -0.04953046 21.32458496 -0.05805969 C26.49958215 -0.06994445 31.67414936 -0.06322384 36.84912109 -0.04394531 C43.48416986 -0.02105355 50.11793852 -0.04784058 56.75286102 -0.08900738 C61.85211916 -0.11456862 66.95107031 -0.11200997 72.05036926 -0.10111427 C74.49682274 -0.09962616 76.94329957 -0.10733387 79.38969421 -0.12436485 C82.80876588 -0.14430353 86.22556482 -0.12597727 89.64453125 -0.09765625 C91.16268181 -0.1182309 91.16268181 -0.1182309 92.71150208 -0.13922119 C99.37554661 -0.02877139 99.37554661 -0.02877139 102.06594849 1.93666649 C104.2899263 4.47165273 105.30338105 6.57535393 106.01367188 9.8659668 C104.99360446 15.46769296 102.23881069 19.61646119 99.25976562 24.4128418 C97.96148537 26.56746279 96.66601089 28.72377639 95.37304688 30.8815918 C94.70096191 31.99791992 94.02887695 33.11424805 93.33642578 34.2644043 C90.0866182 39.74771601 87.01871259 45.32828138 83.94726562 50.9128418 C78.94018165 59.9684167 73.91129462 69.01064474 68.80316162 78.00964355 C68.11826147 79.21790437 67.4352941 80.42726325 66.75445557 81.63781738 C62.01692354 90.05622239 56.92596912 97.61012131 50.69726562 104.9753418 C46.91621175 109.79743474 45.1559374 114.87367805 43.32226562 120.6628418 C42.49357178 123.26531291 41.66222115 125.24061451 40.32226562 127.6628418 C37.58567084 129.0645123 35.11724238 129.54150324 32.09570312 130.00268555 C21.49885239 131.76882734 11.14070577 137.06367377 4.70507812 145.87768555 C-2.47201449 157.1789284 -5.35840137 167.85722183 -3.05273438 181.1628418 C-0.22632991 192.11018303 5.89818829 202.18312972 15.33007812 208.53393555 C23.43321013 213.12571035 31.23782155 214.77075355 40.46679688 214.97924805 C41.62147713 215.01041969 41.62147713 215.01041969 42.79948425 215.04222107 C45.2444923 215.10730229 47.68960246 215.16640771 50.13476562 215.2253418 C51.7981874 215.26856648 53.46159906 215.312182 55.125 215.35620117 C59.1906521 215.46294087 63.25640633 215.56432351 67.32226562 215.6628418 C65.50793595 219.47462211 63.13564324 222.62864557 60.50976562 225.9128418 C60.02765625 226.5212793 59.54554688 227.1297168 59.04882812 227.7565918 C54.7971264 233.10655919 50.4810789 238.40428151 46.16088867 243.69897461 C42.66843222 247.98514769 39.22489146 252.30509292 35.82226562 256.6628418 C31.34026452 262.40294847 26.76270005 268.05977426 22.15820312 273.7019043 C18.6669648 277.98735798 15.22407674 282.30613633 11.82226562 286.6628418 C7.34026452 292.40294847 2.76270005 298.05977426 -1.84179688 303.7019043 C-5.79190889 308.55061999 -9.67053975 313.45007055 -13.51806641 318.38037109 C-16.97148149 322.79389779 -20.50269583 327.13934025 -24.05273438 331.4753418 C-28.5194726 336.93571621 -32.85841733 342.4749852 -37.11523438 348.1003418 C-42.11041695 354.69755295 -47.28394148 361.11877151 -52.57446289 367.48095703 C-56.31337666 371.98304262 -59.96046386 376.54321723 -63.55273438 381.1628418 C-64.44246868 382.2911489 -65.33306058 383.4187804 -66.22460938 384.5456543 C-67.77980102 386.52183731 -69.31391115 388.51494719 -70.81835938 390.5300293 C-75.34353908 396.24885877 -75.34353908 396.24885877 -78.99414062 397.3815918 C-83.10096447 397.65222269 -85.24198547 396.93851968 -88.74023438 394.7253418 C-91.35107192 390.59853406 -91.14807276 387.4383966 -90.67773438 382.6628418 C-90.02422464 379.95872087 -89.04282511 377.47116656 -87.95898438 374.9128418 C-87.52546661 373.83567146 -87.52546661 373.83567146 -87.08319092 372.73674011 C-86.45705454 371.18631949 -85.8238286 369.63874653 -85.1842041 368.09384155 C-84.15087099 365.59795669 -83.13621971 363.09515737 -82.12597656 360.58984375 C-80.69742291 357.04898267 -79.26268817 353.51072037 -77.82421875 349.97387695 C-74.77716086 342.45947879 -71.83565546 334.90428715 -68.89819336 327.3465271 C-67.92082144 324.83256055 -66.94117783 322.31948999 -65.9609375 319.80664062 C-62.20294896 310.16981456 -58.46045546 300.52702138 -54.72460938 290.8815918 C-54.30439514 289.79687088 -53.88418091 288.71214996 -53.45123291 287.59455872 C-51.40685771 282.31679157 -49.36379455 277.03852371 -47.32324219 271.75927734 C-42.52594318 259.35926784 -37.64447992 246.99596794 -32.67773438 234.6628418 C-34.53120483 234.68640747 -34.53120483 234.68640747 -36.42211914 234.71044922 C-41.02719549 234.76494331 -45.63224358 234.79926262 -50.23754883 234.82763672 C-52.22685548 234.84267904 -54.21612921 234.86311802 -56.20532227 234.88916016 C-59.07251127 234.92574425 -61.93925996 234.94261398 -64.80664062 234.95581055 C-65.68921036 234.9712944 -66.57178009 234.98677826 -67.48109436 235.00273132 C-74.22676964 235.00455025 -78.51286251 233.50288358 -84.36523438 230.1003418 C-88.15451987 226.10623006 -90.73881532 221.16319347 -90.64077759 215.54496765 C-90.08390548 209.01859589 -88.48091221 203.39471672 -86.17773438 197.28393555 C-85.82588074 196.32164032 -85.4740271 195.35934509 -85.11151123 194.3678894 C-83.97777488 191.27458682 -82.82800669 188.18752871 -81.67773438 185.1003418 C-80.89437219 182.97274851 -80.11214893 180.84473555 -79.33105469 178.71630859 C-77.803784 174.55764034 -76.27122921 170.40098514 -74.734375 166.24584961 C-73.03798706 161.65190104 -71.3666975 157.04989522 -69.72460938 152.4362793 C-69.32371094 151.31036377 -68.9228125 150.18444824 -68.50976562 149.02441406 C-67.82347362 147.09050141 -67.13842703 145.15614597 -66.45507812 143.22119141 C-64.9228015 138.93122437 -63.29079622 134.72250914 -61.49023438 130.5378418 C-57.65709783 121.43595606 -54.45871475 112.0911441 -51.15075684 102.78897095 C-49.48089397 98.09401293 -47.80352098 93.40174955 -46.12652588 88.70933533 C-45.26206638 86.29039379 -44.39793269 83.8713358 -43.53411865 81.4521637 C-39.54514952 70.28232787 -35.53549942 59.12004341 -31.50671387 47.96450806 C-30.79917523 46.00436828 -30.09251976 44.04390943 -29.38684082 42.08309937 C-27.47546186 36.77243993 -25.54996866 31.46741035 -23.59887695 26.17120361 C-22.97630997 24.4758925 -22.35842699 22.77885506 -21.74487305 21.08026123 C-20.84543311 18.59604028 -19.92798645 16.11918528 -19.00585938 13.64331055 C-18.74367615 12.90848953 -18.48149292 12.17366852 -18.21136475 11.4165802 C-17.95179993 10.73109604 -17.69223511 10.04561188 -17.42480469 9.33935547 C-17.20705383 8.74708664 -16.98930298 8.15481781 -16.76495361 7.54460144 C-12.45844638 0.09089639 -7.93395208 -0.06702513 0 0 Z " fill="#FED250" transform="translate(172.677734375,115.337158203125)"/>
<path d="M0 0 C1.42505859 0.73669922 1.42505859 0.73669922 2.87890625 1.48828125 C22.73813037 12.33706209 35.2955887 28.84468422 45 49 C45.72703125 48.855625 46.4540625 48.71125 47.203125 48.5625 C63.56056149 45.54266557 78.88800142 46.3962922 93 56 C106.20513415 66.1219971 113.37022323 78.23014241 115.60546875 94.62890625 C115.75540915 96.94922767 115.75540915 96.94922767 117 98 C118.95762977 98.31322076 120.91628533 98.62112213 122.87915039 98.8996582 C135.41360167 100.7043073 145.77891531 104.32928193 156 112 C156.81597656 112.60585937 157.63195312 113.21171875 158.47265625 113.8359375 C169.05610858 122.89812079 175.87829929 136.46268361 177.22143555 150.27758789 C177.33807937 152.5853449 177.37979988 154.87683906 177.375 157.1875 C177.37338867 158.00831055 177.37177734 158.82912109 177.37011719 159.67480469 C177.16725445 169.89351764 174.71902536 179.42146196 169 188 C166.99504414 187.34838935 164.99640639 186.67735217 163 186 C162.32710938 185.92136719 161.65421875 185.84273437 160.9609375 185.76171875 C158.31419413 185.27103037 157.02878109 184.81016244 155 183 C153.86211679 179.77350221 153.11634548 176.66006986 152.42163086 173.32080078 C149.65173125 160.10048891 141.4795124 149.695579 130.85546875 141.60546875 C120.16327698 134.63679721 109.39969627 131.83712232 96.80078125 130.58984375 C94 130 94 130 92 127 C91.50857445 124.65649667 91.07920057 122.29971879 90.6875 119.9375 C88.27638327 106.94486515 81.86208093 95.9899122 71.0625 88.125 C60.74910211 81.41260474 50.86778043 78.64171231 38.625 78.8125 C37.72394531 78.81314453 36.82289063 78.81378906 35.89453125 78.81445312 C31.29241866 78.68733176 31.29241866 78.68733176 27 80 C24.0625 80.3125 24.0625 80.3125 21 80 C18.12255076 76.90410567 16.58591854 73.17458082 14.8125 69.375 C11.65405728 62.83767891 7.77810816 57.48193737 3 52 C2.54367187 51.40058594 2.08734375 50.80117188 1.6171875 50.18359375 C-10.72429305 34.25791077 -33.13047245 24.10636108 -52.6328125 21.3203125 C-76.66722556 19.03397622 -97.47064375 24.36934997 -118 37 C-118.495 35.515 -118.495 35.515 -119 34 C-108.57905654 14.14190844 -88.52991142 0.62991639 -67.66796875 -5.9921875 C-66.45753906 -6.32476562 -65.24710938 -6.65734375 -64 -7 C-63.34209473 -7.18546387 -62.68418945 -7.37092773 -62.00634766 -7.56201172 C-41.88424279 -12.70142378 -18.2351839 -9.78941452 0 0 Z " fill="#64CAFF" transform="translate(278,9)"/>
<path d="M0 0 C10.35729228 7.22541343 17.60817398 16.21379359 24 27 C27.8887393 26.44641848 30.27604719 25.36737379 33.4375 23.0625 C41.96615072 16.85290994 51.84108718 16.88098855 62 18 C73.10101661 20.83611499 80.95335899 26.92198413 87.45703125 36.14453125 C91.56140078 43.74021259 92.41973864 50.50539923 92.1875 59.0625 C92.17396484 60.02349609 92.16042969 60.98449219 92.14648438 61.97460938 C92.11152306 64.31701752 92.06246104 66.65819156 92 69 C95.02978323 70.00992774 97.26560457 70.13205435 100.4375 70.25 C112.16682058 71.18494584 122.03942803 76.5427137 129.96875 85.1328125 C139.72283645 96.99477356 141.16730192 109.1081537 140 124 C138.04784468 133.74962143 132.33264235 141.46007575 125 148 C124.01 148.33 123.02 148.66 122 149 C122.03480469 148.26136719 122.06960938 147.52273438 122.10546875 146.76171875 C122.49317467 132.23197772 118.41531327 120.9089508 108.48828125 110.33203125 C99.28770541 101.70919957 88.68534062 98.86978893 76.37109375 98.2109375 C74 98 74 98 73 97 C72.96159515 95.65020987 72.98820632 94.29844424 73.04296875 92.94921875 C73.44093467 79.23916091 72.83942092 67.52369719 63 57 C54.59942127 48.50059093 44.98462912 45.26994534 33.1875 44.5625 C25.23009885 44.73821548 17.21613988 48.06496902 10.9375 52.875 C8 55 8 55 6.015625 54.94140625 C3.14338871 53.59991604 2.36769734 51.80041532 0.8125 49.0625 C-9.17759741 32.68807283 -23.743268 22.57913774 -42 17 C-59.44909949 13.49696109 -78.22722612 16.35222715 -93.51171875 25.50390625 C-95.05658311 26.60379953 -96.54022326 27.78945343 -98 29 C-98.66 28.67 -99.32 28.34 -100 28 C-92.47029849 11.5205217 -79.18589459 -0.96524103 -62.22998047 -7.34375 C-41.02980797 -14.84388999 -18.85620687 -12.0688149 0 0 Z " fill="#D1EDFF" transform="translate(371,173)"/>
<path d="M0 0 C1.79401745 0.09847983 3.58829846 0.19227665 5.3828125 0.28125 C9.76011723 0.50845807 14.12896775 0.79926793 18.5 1.125 C16.68567032 4.93678031 14.31337761 8.09080378 11.6875 11.375 C11.20539063 11.9834375 10.72328125 12.591875 10.2265625 13.21875 C5.97486077 18.56871739 1.65881328 23.86643971 -2.66137695 29.16113281 C-6.15383341 33.4473059 -9.59737416 37.76725112 -13 42.125 C-17.4820011 47.86510668 -22.05956557 53.52193246 -26.6640625 59.1640625 C-30.15530083 63.44951618 -33.59818888 67.76829453 -37 72.125 C-41.4820011 77.86510668 -46.05956557 83.52193246 -50.6640625 89.1640625 C-54.61417451 94.01277819 -58.49280538 98.91222875 -62.34033203 103.8425293 C-65.79374711 108.25605599 -69.32496146 112.60149846 -72.875 116.9375 C-77.34173822 122.39787441 -81.68068295 127.93714341 -85.9375 133.5625 C-90.93268258 140.15971115 -96.10620711 146.58092971 -101.39672852 152.94311523 C-105.13564229 157.44520082 -108.78272949 162.00537544 -112.375 166.625 C-113.26473431 167.7533071 -114.1553262 168.8809386 -115.046875 170.0078125 C-116.60206664 171.98399551 -118.13617678 173.97710539 -119.640625 175.9921875 C-124.16580471 181.71101698 -124.16580471 181.71101698 -127.81640625 182.84375 C-131.9232301 183.1143809 -134.06425109 182.40067788 -137.5625 180.1875 C-140.17711667 176.05471881 -140.00160127 172.90905455 -139.5 168.125 C-138.75063754 165.18155336 -137.65976645 162.45214208 -136.47265625 159.66015625 C-136.16428329 158.90077255 -135.85591034 158.14138885 -135.53819275 157.35899353 C-134.56084124 154.96221817 -133.5620897 152.57507347 -132.5625 150.1875 C-131.89506464 148.55982624 -131.22903579 146.93157498 -130.56445312 145.30273438 C-125.93403872 133.99307744 -125.93403872 133.99307744 -124.5 131.125 C-123.84 131.125 -123.18 131.125 -122.5 131.125 C-122.15775391 130.07119141 -122.15775391 130.07119141 -121.80859375 128.99609375 C-120.23800169 125.55016788 -118.05035674 122.98924521 -115.5625 120.1875 C-111.62778819 115.6501922 -107.80904432 111.05578301 -104.125 106.3125 C-100.19171012 101.25571527 -96.18491009 96.26814783 -92.125 91.3125 C-87.57354158 85.74960638 -83.15382 80.10323727 -78.8125 74.375 C-74.33560217 68.46831453 -69.73306909 62.72845134 -64.94921875 57.06640625 C-62.29825955 53.8827184 -59.73490068 50.64156482 -57.1875 47.375 C-53.18408922 42.24211146 -49.11658383 37.16757247 -45 32.125 C-40.00564596 26.00455491 -35.09046467 19.82915663 -30.23046875 13.6015625 C-29.79331543 13.07449707 -29.35616211 12.54743164 -28.90576172 12.00439453 C-27.38686167 10.07030341 -27.38686167 10.07030341 -26.08251953 7.49169922 C-19.77996766 -2.86184203 -10.74995086 -0.81660177 0 0 Z " fill="#FEC433" transform="translate(221.5,329.875)"/>
<path d="M0 0 C5.46252578 -0.14857278 10.92387039 -0.25732017 16.38793945 -0.32958984 C18.24556977 -0.35972146 20.10305828 -0.40063595 21.96020508 -0.45263672 C24.63398218 -0.52561645 27.30587579 -0.5594907 29.98046875 -0.5859375 C31.2213752 -0.63238907 31.2213752 -0.63238907 32.48735046 -0.67977905 C38.10999466 -0.68304405 38.10999466 -0.68304405 40.64576721 1.26306152 C42.88470186 3.8254793 43.97307103 5.87524431 44.69140625 9.203125 C43.67133883 14.80485116 40.91654506 18.95361939 37.9375 23.75 C36.63921975 25.904621 35.34374526 28.0609346 34.05078125 30.21875 C33.37869629 31.33507812 32.70661133 32.45140625 32.01416016 33.6015625 C28.76435257 39.08487421 25.69644696 44.66543959 22.625 50.25 C17.61791602 59.30557491 12.589029 68.34780294 7.480896 77.34680176 C6.79599585 78.55506258 6.11302847 79.76442145 5.43218994 80.97497559 C0.69465792 89.39338059 -4.3962965 96.94727951 -10.625 104.3125 C-14.40605388 109.13459294 -16.16632822 114.21083625 -18 120 C-18.82869384 122.60247112 -19.66004448 124.57777271 -21 127 C-23.73659479 128.4016705 -26.20502324 128.87866144 -29.2265625 129.33984375 C-39.82341323 131.10598554 -50.18155985 136.40083197 -56.6171875 145.21484375 C-63.31619313 155.76327798 -65.63695814 165.56581643 -66 178 C-68.08218362 178.10832169 -70.16599129 178.18573541 -72.25 178.25 C-73.41015625 178.29640625 -74.5703125 178.3428125 -75.765625 178.390625 C-79 178 -79 178 -81.421875 176.421875 C-83.59556002 173.08602176 -83.30234296 170.93998712 -83 167 C-81.75341797 163.92407227 -81.75341797 163.92407227 -79.9921875 160.81640625 C-79.67528458 160.24815628 -79.35838165 159.67990631 -79.03187561 159.09443665 C-77.99381654 157.24201037 -76.93489214 155.40250674 -75.875 153.5625 C-75.14021174 152.26187706 -74.40658407 150.96059781 -73.67407227 149.65869141 C-68.62026547 140.70721669 -63.44024627 131.82686965 -58.2265625 122.96777344 C-53.15976216 114.34214904 -48.30208529 105.6073335 -43.46240234 96.8527832 C-38.27061819 87.46618306 -32.9754237 78.14336324 -27.63232422 68.84228516 C-23.77755039 62.13015878 -19.92506715 55.41663733 -16.09790039 48.6887207 C-15.42204585 47.5008092 -14.74618321 46.3129023 -14.0703125 45.125 C-13.73557419 44.53643723 -13.40083588 43.94787445 -13.05595398 43.34147644 C-11.02303989 39.77380824 -8.96560682 36.22171396 -6.88742065 32.68023682 C-5.24638335 29.87705784 -3.62566246 27.06211527 -2 24.25 C-1.39430176 23.23325195 -0.78860352 22.21650391 -0.16455078 21.16894531 C3.08197146 15.50634008 5.13565612 11.55841412 4 5 C2.72143355 3.29095835 1.39371395 1.61651384 0 0 Z " fill="#FEC433" transform="translate(234,116)"/>
<path d="M0 0 C0.66 0.33 1.32 0.66 2 1 C-4.27 7.27 -10.54 13.54 -17 20 C-17 15.78773475 -14.62438852 14.02396665 -11.875 11.125 C-11.1634375 10.34962891 -11.1634375 10.34962891 -10.4375 9.55859375 C-7.17703371 6.06020154 -3.72611621 2.99637238 0 0 Z " fill="#74CFFF" transform="translate(182,17)"/>
</svg>
