<?xml version="1.0" encoding="UTF-8"?>
<svg version="1.1" xmlns="http://www.w3.org/2000/svg" width="512" height="512">
<path d="M0 0 C1.22074219 0.32871094 2.44148438 0.65742187 3.69921875 0.99609375 C18.61438386 5.50025542 32.03600264 13.06954326 44 23 C44.91007812 23.73476562 45.82015625 24.46953125 46.7578125 25.2265625 C59.31158208 35.92051436 67.62453094 49.33863525 75.07983398 63.90136719 C75.54977783 64.80918945 76.01972168 65.71701172 76.50390625 66.65234375 C76.91455322 67.46695068 77.3252002 68.28155762 77.74829102 69.12084961 C78.93518093 71.3196427 78.93518093 71.3196427 82 72 C84.68906999 71.49320609 84.68906999 71.49320609 87.625 70.625 C92.77593247 69.26753404 97.68501711 68.31264605 103 68 C103.680625 67.95875 104.36125 67.9175 105.0625 67.875 C126.44123175 67.24621377 146.84493876 75.65437889 162.33862305 90.17211914 C170.6485307 98.33338815 176.97548715 108.05095768 181 119 C181.391875 120.03640625 181.78375 121.0728125 182.1875 122.140625 C188.61679617 142.05358398 186.25198748 163.70839255 177.25 182.3125 C167.92239167 200.47610601 152.06535471 214.25976741 132.78869724 221.12193584 C119.72859142 225.23411074 107.03576389 225.41687775 93.46899414 225.34057617 C91.33872998 225.33972826 89.20846495 225.34020824 87.07820129 225.34190369 C81.33952481 225.34275866 75.60103936 225.32521404 69.86240697 225.30418181 C63.84866528 225.28533145 57.83491841 225.28365802 51.82115173 225.28010559 C40.45308389 225.27080957 29.08510338 225.24622905 17.71707386 225.21605712 C4.7665615 225.18243679 -8.1839552 225.16600796 -21.13450038 225.15097082 C-47.75638186 225.11967718 -74.37818602 225.06696452 -101 225 C-101.09502556 226.03325661 -101.09502556 226.03325661 -101.19197083 227.08738708 C-101.27791 227.98981644 -101.36384918 228.89224579 -101.45239258 229.82202148 C-101.57835564 231.16465309 -101.57835564 231.16465309 -101.7068634 232.53440857 C-102.89884487 242.56024402 -109.56899406 252.44744101 -116.7578125 259.30078125 C-129.192246 268.72408887 -142.38313842 270.30271531 -157.45874023 270.2746582 C-159.01032759 270.27901195 -160.56191281 270.2841973 -162.11349487 270.29014587 C-166.30567289 270.30347492 -170.49776041 270.30412144 -174.68995547 270.30158257 C-178.19875527 270.30050885 -181.70753706 270.30540638 -185.21633297 270.310188 C-193.49815836 270.3212618 -201.77993838 270.32173238 -210.06176758 270.31567383 C-218.58635552 270.30963331 -227.11077845 270.3219519 -235.63533825 270.3432439 C-242.97320555 270.36089337 -250.31102047 270.36685604 -257.6489082 270.36360615 C-262.02319619 270.36179871 -266.39736641 270.36437558 -270.77163506 270.37832069 C-274.88642139 270.39094928 -279.00095143 270.38890771 -283.1157341 270.37590981 C-284.61928331 270.3735555 -286.12285085 270.37623728 -287.62637901 270.38453293 C-299.62091025 270.44590255 -309.9813999 269.63153571 -319 261 C-325.9812763 253.08788686 -327.57066652 246.33224639 -327.3125 235.95703125 C-326.90893716 230.84691676 -325.80715305 227.25486721 -323 223 C-322.61070312 222.37867188 -322.22140625 221.75734375 -321.8203125 221.1171875 C-317.16743581 214.75733829 -309.63395622 210.91713717 -302 209.40625 C-299.65401211 209.16631942 -297.35720844 209.01043013 -295 209 C-293.95892044 205.52973481 -293.83206804 202.2350704 -293.6875 198.625 C-292.40789037 179.95433218 -284.25990026 164.83181682 -271 151.875 C-260.49070072 142.8956507 -245.77332047 136.87407611 -232 136 C-230.93265625 135.92072266 -230.93265625 135.92072266 -229.84375 135.83984375 C-216.97722629 135.34662701 -204.68254545 138.93889726 -193 144 C-192.47792969 143.35933594 -191.95585937 142.71867188 -191.41796875 142.05859375 C-182.28860533 131.33039261 -171.43164773 124.16860185 -157.19921875 122.57421875 C-154.74693706 122.4063915 -152.29212319 122.27066701 -149.8359375 122.17578125 C-147.05160378 122.18872834 -147.05160378 122.18872834 -145 121 C-144.59509226 118.57624079 -144.59509226 118.57624079 -144.5078125 115.62890625 C-144.4135498 113.9442627 -144.4135498 113.9442627 -144.31738281 112.22558594 C-144.25389648 111.01676758 -144.19041016 109.80794922 -144.125 108.5625 C-142.11713586 77.32996849 -131.33542512 48.8081485 -108.18359375 26.9140625 C-93.80750366 14.31248084 -77.56879418 4.91703269 -59 0 C-57.83339844 -0.31710938 -56.66679687 -0.63421875 -55.46484375 -0.9609375 C-37.70175024 -5.03281382 -17.58867447 -4.78985953 0 0 Z " fill="#B3DAFF" transform="translate(327,57)"/>
<path d="M0 0 C17.85918018 -0.68460191 33.74664744 5.16762861 46.84375 17.16015625 C47.6378125 17.86140625 48.431875 18.56265625 49.25 19.28515625 C56.61844419 26.14891248 62.35326975 34.68850131 65.84375 44.16015625 C66.79894531 44.00289062 67.75414062 43.845625 68.73828125 43.68359375 C84.61117368 41.44280863 97.2835206 42.85396641 110.71875 51.97265625 C120.23459634 59.27042042 126.68456284 69.90639504 128.36328125 81.859375 C129.40066716 95.9816552 126.83622192 107.153392 117.9453125 118.60546875 C109.38148 127.99703228 97.19215883 133.63329522 84.51611519 134.3476963 C80.4711248 134.4271665 76.43055888 134.4423436 72.38500977 134.43481445 C70.83342241 134.4391682 69.28183719 134.44435355 67.73025513 134.45030212 C63.53807711 134.46363117 59.34598959 134.46427769 55.15379453 134.46173882 C51.64499473 134.4606651 48.13621294 134.46556263 44.62741703 134.47034425 C36.34559164 134.48141805 28.06381162 134.48188863 19.78198242 134.47583008 C11.25739448 134.46978956 2.73297155 134.48210815 -5.79158825 134.50340015 C-13.12945555 134.52104962 -20.46727047 134.52701229 -27.8051582 134.5237624 C-32.17944619 134.52195496 -36.55361641 134.52453183 -40.92788506 134.53847694 C-45.04267139 134.55110553 -49.15720143 134.54906396 -53.2719841 134.53606606 C-54.77553331 134.53371175 -56.27910085 134.53639353 -57.78262901 134.54468918 C-69.77716025 134.6060588 -80.1376499 133.79169196 -89.15625 125.16015625 C-96.1375263 117.24804311 -97.72691652 110.49240264 -97.46875 100.1171875 C-97.06518716 95.00707301 -95.96340305 91.41502346 -93.15625 87.16015625 C-92.76695313 86.53882813 -92.37765625 85.9175 -91.9765625 85.27734375 C-87.32368581 78.91749454 -79.79020622 75.07729342 -72.15625 73.56640625 C-69.81026211 73.32647567 -67.51345844 73.17058638 -65.15625 73.16015625 C-64.11517044 69.68989106 -63.98831804 66.39522665 -63.84375 62.78515625 C-62.56414037 44.11448843 -54.41615026 28.99197307 -41.15625 16.03515625 C-29.7670114 6.30396971 -14.7545311 1.09589814 0 0 Z " fill="#D8ECFF" transform="translate(97.15625,192.83984375)"/>
<path d="M0 0 C1.20817383 -0.00555908 2.41634766 -0.01111816 3.66113281 -0.0168457 C12.36827589 0.05577589 12.36827589 0.05577589 14.625 2.3125 C13.57183594 2.53164063 12.51867187 2.75078125 11.43359375 2.9765625 C-20.52018016 9.89254392 -47.02405959 27.44277183 -64.81640625 55.0234375 C-74.6255522 70.99091089 -79.88043843 89.06029189 -80.59765625 107.73046875 C-80.6352002 108.68244141 -80.67274414 109.63441406 -80.71142578 110.61523438 C-80.77774096 112.50794012 -80.82745894 114.40131551 -80.85888672 116.29492188 C-80.88354004 117.16052734 -80.90819336 118.02613281 -80.93359375 118.91796875 C-80.94704834 119.69293701 -80.96050293 120.46790527 -80.97436523 121.26635742 C-81.48159074 123.85688571 -82.27939788 124.74095039 -84.375 126.3125 C-86.89592026 126.75358802 -89.27349401 127.04697423 -91.8125 127.25 C-105.19497449 128.67042715 -116.37656709 132.62724964 -125.68359375 142.84765625 C-127.69621158 145.29540848 -127.69621158 145.29540848 -127.4375 148.8125 C-126.15834383 153.0261909 -124.68029372 154.43833155 -121.375 157.3125 C-115.47302841 162.62427444 -111.4298209 168.50762731 -107.375 175.3125 C-106.81296875 176.20710937 -106.2509375 177.10171875 -105.671875 178.0234375 C-104.375 180.3125 -104.375 180.3125 -104.375 182.3125 C-103.68575439 182.29155273 -102.99650879 182.27060547 -102.28637695 182.24902344 C-83.40386286 181.75066259 -68.58418568 181.74816567 -54.15625 195.4140625 C-45.04479501 205.03548699 -41.375 215.22056089 -41.375 228.3125 C-51.935 228.3125 -62.495 228.3125 -73.375 228.3125 C-73.705 224.6825 -74.035 221.0525 -74.375 217.3125 C-78.99339637 203.62225363 -85.77040851 194.49082336 -98.375 187.3125 C-99.48294922 186.65121094 -99.48294922 186.65121094 -100.61328125 185.9765625 C-110.70984274 180.919315 -124.51721655 182.50531818 -135.375 184.3125 C-135.92027344 183.27351562 -136.46554688 182.23453125 -137.02734375 181.1640625 C-144.00038576 168.15791831 -152.33776276 157.97931081 -164.375 149.3125 C-160.85740012 139.24728847 -151.54912366 133.81594352 -142.375 129.3125 C-135.50032244 126.38002035 -128.70145133 125.86218582 -121.28125 125.5234375 C-118.43767758 125.50271066 -118.43767758 125.50271066 -116.375 124.3125 C-115.97009226 121.88874079 -115.97009226 121.88874079 -115.8828125 118.94140625 C-115.8199707 117.81831055 -115.75712891 116.69521484 -115.69238281 115.53808594 C-115.62889648 114.32926758 -115.56541016 113.12044922 -115.5 111.875 C-113.49213586 80.64246849 -102.71042512 52.1206485 -79.55859375 30.2265625 C-65.18250366 17.62498084 -48.94379418 8.22953269 -30.375 3.3125 C-28.62509766 2.83683594 -28.62509766 2.83683594 -26.83984375 2.3515625 C-17.88518673 0.2988651 -9.16089395 0.03663877 0 0 Z " fill="#8CCAFF" transform="translate(298.375,53.6875)"/>
<path d="M0 0 C-2.1515058 2.1515058 -3.15327682 2.48390022 -6 3.3125 C-22.96927407 8.8518331 -34.67399054 19.46043328 -43 35 C-48.37279348 45.95680244 -50.16672904 55.858426 -50.75390625 67.9375 C-51 71 -51 71 -52 72 C-53.80899998 72.27418122 -55.62250729 72.51879074 -57.4375 72.75 C-65.9250634 74.13263518 -73.41324235 76.97643808 -78.75 83.99609375 C-83.30843376 91.30383287 -85.19182566 98.41148313 -84 107 C-82.02289383 114.89672583 -77.86405561 121.66464758 -71.0859375 126.3125 C-66.31929007 128.8952253 -61.31028909 130.06578247 -56 131 C-56 131.33 -56 131.66 -56 132 C-60.51656908 132.07490483 -65.03279623 132.12895323 -69.54980469 132.16479492 C-71.08209543 132.17975744 -72.61434429 132.20013497 -74.14648438 132.22631836 C-86.60039702 132.4336126 -97.54031124 132.05369353 -107 123 C-113.9812763 115.08788686 -115.57066652 108.33224639 -115.3125 97.95703125 C-114.90893716 92.84691676 -113.80715305 89.25486721 -111 85 C-110.61070313 84.37867188 -110.22140625 83.75734375 -109.8203125 83.1171875 C-105.16743581 76.75733829 -97.63395622 72.91713717 -90 71.40625 C-87.65401211 71.16631942 -85.35720844 71.01043013 -83 71 C-81.95892044 67.52973481 -81.83206804 64.2350704 -81.6875 60.625 C-80.40789037 41.95433218 -72.25990026 26.83181682 -59 13.875 C-42.70977279 -0.04368633 -20.58718734 -4.90588294 0 0 Z " fill="#B4DBFF" transform="translate(115,195)"/>
<path d="M0 0 C1.80859375 0.59375 1.80859375 0.59375 3.87109375 2.09375 C5.93395404 7.59471077 4.45464785 12.08253117 2.2421875 17.2578125 C-2.53999841 27.26804608 -2.53999841 27.26804608 -5.19140625 28.59375 C-9.56502639 29.08887681 -11.51095869 29.08598866 -15.12890625 26.46875 C-17.61941153 22.99713658 -17.57250802 21.78586942 -17.19140625 17.59375 C-16.0546875 14.0859375 -16.0546875 14.0859375 -14.50390625 10.46875 C-14.00503906 9.26992188 -13.50617187 8.07109375 -12.9921875 6.8359375 C-9.71161784 0.92948887 -6.54169066 -1.28607907 0 0 Z " fill="#B4DBFF" transform="translate(17.19140625,429.40625)"/>
<path d="M0 0 C2.9375 1.9375 2.9375 1.9375 5 5 C6.19660614 12.57325726 1.6528174 20.66663252 -2 27 C-5.75047482 29.50031654 -7.55856266 29.53603554 -12 29 C-14.9375 26.875 -14.9375 26.875 -17 24 C-17.54164232 19.01118915 -16.26903389 15.43860298 -14.3125 10.875 C-13.81363281 9.67617188 -13.31476563 8.47734375 -12.80078125 7.2421875 C-9.7846559 1.81185336 -6.36757713 -1.19392071 0 0 Z " fill="#B4DBFF" transform="translate(392,361)"/>
<path d="M0 0 C2.9375 1.9375 2.9375 1.9375 5 5 C5.53631525 13.44696513 1.22187124 20.90179616 -3 28 C-6.05693322 29.52846661 -8.62984547 29.23242445 -12 29 C-14.375 28 -14.375 28 -16 26 C-18.38418266 18.97990661 -15.62391836 13.6535767 -12.8359375 7.171875 C-9.73728313 1.81845511 -6.34767244 -1.19018858 0 0 Z " fill="#B4DBFF" transform="translate(468,318)"/>
<path d="M0 0 C2.9375 1.9375 2.9375 1.9375 5 5 C6.19660614 12.57325726 1.6528174 20.66663252 -2 27 C-5.75047482 29.50031654 -7.55856266 29.53603554 -12 29 C-14.9375 26.875 -14.9375 26.875 -17 24 C-17.54164232 19.01118915 -16.26903389 15.43860298 -14.3125 10.875 C-13.81363281 9.67617188 -13.31476563 8.47734375 -12.80078125 7.2421875 C-9.7846559 1.81185336 -6.36757713 -1.19392071 0 0 Z " fill="#B4DAFF" transform="translate(295,318)"/>
<path d="M0 0 C2.9375 1.9375 2.9375 1.9375 5 5 C6.16073097 12.48366023 1.72616107 19.82680777 -2 26 C-4.24623743 28.75459643 -4.67682648 28.95212244 -8.375 29.5 C-12 29 -12 29 -14.9375 26.875 C-17.42800528 23.40338658 -17.38110177 22.19211942 -17 18 C-15.86328125 14.4921875 -15.86328125 14.4921875 -14.3125 10.875 C-13.81363281 9.67617188 -13.31476563 8.47734375 -12.80078125 7.2421875 C-9.7846559 1.81185336 -6.36757713 -1.19392071 0 0 Z " fill="#B4DBFF" transform="translate(316,404)"/>
<path d="M0 0 C2.875 2.0625 2.875 2.0625 5 5 C5.51417803 10.45160554 4.42660854 14.27181611 2.25 19.25 C1.73953125 20.45140625 1.2290625 21.6528125 0.703125 22.890625 C-0.96665339 25.93911948 -1.98904821 27.34864466 -5 29 C-8.92596294 29.49074537 -11.0688869 29.63707739 -14.375 27.375 C-16.4201834 24.3858858 -16.78501815 22.62939945 -17 19 C-16.23530704 16.12660826 -15.06093558 13.50544753 -13.8125 10.8125 C-13.50763672 10.10158203 -13.20277344 9.39066406 -12.88867188 8.65820312 C-10.1310526 2.51281678 -7.32440067 -1.19582052 0 0 Z " fill="#B3DBFF" transform="translate(258,404)"/>
<path d="M0 0 C1.83984375 0.56640625 1.83984375 0.56640625 3.83984375 2.19140625 C5.45092658 6.01772797 5.50585744 9.672458 4.11816406 13.61865234 C3.13540673 15.76899751 2.0755921 17.85442925 0.96484375 19.94140625 C0.60003906 20.66457031 0.23523438 21.38773437 -0.140625 22.1328125 C-2.8689505 27.42080337 -2.8689505 27.42080337 -5.16015625 28.56640625 C-9.47496188 29.05487481 -11.50313617 29.00441964 -15.16015625 26.56640625 C-17.29176576 23.36899199 -17.68894632 21.78270149 -16.94140625 18.0234375 C-10.6135622 -1.87763205 -10.6135622 -1.87763205 0 0 Z " fill="#B4DBFF" transform="translate(93.16015625,386.43359375)"/>
<path d="M0 0 C1.8046875 0.6015625 1.8046875 0.6015625 3.8046875 2.2265625 C5.41577033 6.05288422 5.47070119 9.70761425 4.08300781 13.65380859 C3.10025048 15.80415376 2.04043585 17.8895855 0.9296875 19.9765625 C0.56488281 20.69972656 0.20007813 21.42289062 -0.17578125 22.16796875 C-2.90410675 27.45595962 -2.90410675 27.45595962 -5.1953125 28.6015625 C-8.70586916 28.86160373 -11.32807952 28.98953515 -14.5703125 27.5390625 C-16.9883531 24.65601409 -16.96893935 22.32917372 -17.1953125 18.6015625 C-16.44662666 15.84606087 -15.67451265 13.50710124 -14.5703125 10.9140625 C-14.19712891 9.93856445 -14.19712891 9.93856445 -13.81640625 8.94335938 C-10.97982043 2.02124324 -7.41742609 -1.42750464 0 0 Z " fill="#B3DBFF" transform="translate(190.1953125,429.3984375)"/>
<path d="M0 0 C2.9453427 0.89996583 3.75237845 1.57550592 5.3125 4.25 C6.71369539 9.85478156 4.51891519 14.60560512 2.1875 19.6875 C1.68605469 20.80511719 1.18460937 21.92273438 0.66796875 23.07421875 C-0.98953758 25.98164789 -2.12370023 27.35801785 -5 29 C-8.7241837 29.55466566 -10.52678113 29.2468968 -13.875 27.5 C-16.19350441 24.77234776 -16.78175749 23.13597614 -16.55859375 19.55859375 C-15.20034618 13.33724998 -12.66594969 5.51095262 -7.984375 1.1015625 C-5.18285348 -0.45361283 -3.15492497 -0.32863802 0 0 Z " fill="#B4DBFF" transform="translate(373,404)"/>
<path d="M0 0 C2 1.625 2 1.625 3 4 C3.5007801 9.87146521 2.22359498 13.68417917 -0.3125 18.8125 C-0.62123047 19.47958984 -0.92996094 20.14667969 -1.24804688 20.83398438 C-2.8622926 24.20181071 -3.83358863 25.88905909 -7 28 C-10.55025388 28.32275035 -13.09708604 28.40393519 -16.375 26.9375 C-18.81288705 24.03078851 -18.80735393 21.76604179 -19 18 C-18.25769547 15.08947736 -17.08592627 12.46394226 -15.8125 9.75 C-15.50763672 9.04359375 -15.20277344 8.3371875 -14.88867188 7.609375 C-11.5825056 0.29006351 -8.01093993 -2.46621293 0 0 Z " fill="#B4DBFF" transform="translate(171,344)"/>
<path d="M0 0 C2.875 1.5 2.875 1.5 5 4 C6.57094589 11.71191617 2.69156799 19.33655044 -1 26 C-3.7100836 28.58204815 -4.69661051 28.96207631 -8.5 29.4375 C-12 29 -12 29 -14.375 27.3125 C-16.23440918 24.6664177 -16.69527046 23.21103068 -17 20 C-15.1471317 13.2399919 -12.42062598 6.48767363 -8 1 C-5.14675563 -0.42662219 -3.16545451 -0.31033868 0 0 Z " fill="#B3DBFF" transform="translate(431,404)"/>
<path d="M0 0 C2.875 1.5 2.875 1.5 5 4 C6.57094589 11.71191617 2.69156799 19.33655044 -1 26 C-3.7100836 28.58204815 -4.69661051 28.96207631 -8.5 29.4375 C-12 29 -12 29 -14.375 27.3125 C-16.23440918 24.6664177 -16.69527046 23.21103068 -17 20 C-15.1471317 13.2399919 -12.42062598 6.48767363 -8 1 C-5.14675563 -0.42662219 -3.16545451 -0.31033868 0 0 Z " fill="#B4DBFF" transform="translate(334,361)"/>
<path d="M0 0 C2.5 2.125 2.5 2.125 4 5 C3.64438887 10.11344286 2.30225628 14.13551654 0.125 18.75 C-0.64457031 20.41289062 -0.64457031 20.41289062 -1.4296875 22.109375 C-3.72306248 26.33101053 -3.72306248 26.33101053 -6 28 C-12.75 28.75 -12.75 28.75 -16.5 26.5 C-18.5736004 23.04399934 -18.45210923 19.89683382 -18 16 C-17.18192317 13.22896524 -16.02765012 10.71158963 -14.75 8.125 C-14.44964844 7.46242188 -14.14929687 6.79984375 -13.83984375 6.1171875 C-12.53788375 3.39138189 -11.46409818 1.33368299 -8.984375 -0.44921875 C-5.68288562 -1.36557702 -3.27738887 -0.87787202 0 0 Z " fill="#B4DBFF" transform="translate(76,430)"/>
<path d="M0 0 C2.886119 2.27248155 2.9919176 2.95069738 3.625 6.8125 C3.43866109 13.87008626 -0.9944636 22.9944636 -6 28 C-12.88888889 28.66666667 -12.88888889 28.66666667 -16.5 26.5 C-18.69656674 22.83905543 -18.82699446 20.07279226 -18 16 C-13.79886686 3.39660057 -13.79886686 3.39660057 -9.51953125 0.07421875 C-5.98102404 -1.43444712 -3.67624733 -0.95310116 0 0 Z " fill="#B4DBFF" transform="translate(210,387)"/>
<path d="M0 0 C1.875 1.125 1.875 1.125 3 3 C4.31923044 8.66082479 3.68354293 11.92298096 1.3125 17.1875 C0.79300781 18.37730469 0.27351563 19.56710937 -0.26171875 20.79296875 C-1.92307239 23.85807288 -3.27261116 25.85146424 -6 28 C-8.76834551 28.7840041 -11.20357793 28.64048931 -14 28 C-16.5625 26.0625 -16.5625 26.0625 -18 23 C-18.87709962 15.46002084 -14.9534229 8.16622869 -11 2 C-7.24848358 -1.5290945 -4.96242285 -1.26316218 0 0 Z " fill="#B4DBFF" transform="translate(152,387)"/>
<path d="M0 0 C2.55376992 0.85125664 3.66416489 1.568212 5.3125 3.6875 C6.97007409 9.26297648 4.52576461 14.70645204 2.1875 19.75 C1.68605469 20.85859375 1.18460937 21.9671875 0.66796875 23.109375 C-0.99271172 25.98736926 -2.14832111 27.36084599 -5 29 C-7.9375 29.5 -7.9375 29.5 -11 29 C-13.875 26.9375 -13.875 26.9375 -16 24 C-16.72925457 17.85451095 -14.9276763 13.89092813 -12.125 8.625 C-11.76019531 7.90183594 -11.39539063 7.17867188 -11.01953125 6.43359375 C-7.97467848 0.53211547 -6.60402869 -0.39624172 0 0 Z " fill="#B4DBFF" transform="translate(449,361)"/>
<path d="M0 0 C3.24694947 1.87601525 4.69412691 3.03521337 5.8359375 6.63671875 C6.05578302 11.14355193 4.68285581 14.15303468 2.8125 18.1875 C2.35520508 19.25387695 2.35520508 19.25387695 1.88867188 20.34179688 C0.18153852 24.14616325 -1.1796504 26.95941166 -5 29 C-8.7241837 29.55466566 -10.52678113 29.2468968 -13.875 27.5 C-16.19350441 24.77234776 -16.78175749 23.13597614 -16.55859375 19.55859375 C-15.20199496 13.34480208 -12.67058049 5.5001179 -7.98046875 1.109375 C-5.10916884 -0.49900601 -3.23974561 -0.4628208 0 0 Z " fill="#B3DBFF" transform="translate(276,361)"/>
<path d="M0 0 C1.875 1.125 1.875 1.125 3 3 C4.31923044 8.66082479 3.68354293 11.92298096 1.3125 17.1875 C0.79300781 18.37730469 0.27351563 19.56710937 -0.26171875 20.79296875 C-1.92307239 23.85807288 -3.27261116 25.85146424 -6 28 C-8.76834551 28.7840041 -11.20357793 28.64048931 -14 28 C-16.5625 26.0625 -16.5625 26.0625 -18 23 C-18.87709962 15.46002084 -14.9534229 8.16622869 -11 2 C-7.24848358 -1.5290945 -4.96242285 -1.26316218 0 0 Z " fill="#B3DBFF" transform="translate(228,344)"/>
<path d="M0 0 C3.4375 1.0625 3.4375 1.0625 5.9375 3.1875 C7.88915373 6.92816965 7.6548931 9.18643231 6.4375 13.0625 C2.08844067 25.33651188 2.08844067 25.33651188 -2.5625 29.0625 C-5.30909576 29.7920645 -7.78450688 29.61468306 -10.5625 29.0625 C-13.0625 27.5 -13.0625 27.5 -14.5625 25.0625 C-15.00550253 19.64067802 -14.02371274 15.83814757 -11.875 10.875 C-11.37613281 9.68519531 -10.87726562 8.49539063 -10.36328125 7.26953125 C-7.72380958 2.56886696 -5.50783878 0.09662875 0 0 Z " fill="#B4DBFF" transform="translate(51.5625,342.9375)"/>
<path d="M0 0 C2.875 1.5 2.875 1.5 5 4 C6.57094589 11.71191617 2.69156799 19.33655044 -1 26 C-3.7100836 28.58204815 -4.69661051 28.96207631 -8.5 29.4375 C-12 29 -12 29 -14.375 27.3125 C-16.28779666 24.59044322 -16.77095138 23.32794178 -17 20 C-16.20801377 17.00642705 -15.03216159 14.21683576 -13.8125 11.375 C-13.50763672 10.611875 -13.20277344 9.84875 -12.88867188 9.0625 C-10.19217869 2.61805089 -7.60437337 -1.08633905 0 0 Z " fill="#B4DBFF" transform="translate(410,318)"/>
<path d="M0 0 C2.55376992 0.85125664 3.66416489 1.568212 5.3125 3.6875 C6.97007409 9.26297648 4.52576461 14.70645204 2.1875 19.75 C1.68605469 20.85859375 1.18460937 21.9671875 0.66796875 23.109375 C-0.99271172 25.98736926 -2.14832111 27.36084599 -5 29 C-7.9375 29.5 -7.9375 29.5 -11 29 C-13.875 26.9375 -13.875 26.9375 -16 24 C-16.72925457 17.85451095 -14.9276763 13.89092813 -12.125 8.625 C-11.76019531 7.90183594 -11.39539063 7.17867188 -11.01953125 6.43359375 C-7.97467848 0.53211547 -6.60402869 -0.39624172 0 0 Z " fill="#B3DBFF" transform="translate(352,318)"/>
<path d="M0 0 C1.9375 1.0625 1.9375 1.0625 3 3 C4.33487381 10.86092358 0.75864973 18.21546481 -3 25 C-5.7100836 27.58204815 -6.69661051 27.96207631 -10.5 28.4375 C-14 28 -14 28 -16.4375 26.5 C-18.71636731 22.8538123 -18.8315895 20.09542199 -18 16 C-13.79886686 3.39660057 -13.79886686 3.39660057 -9.51953125 0.07421875 C-5.98102404 -1.43444712 -3.67624733 -0.95310116 0 0 Z " fill="#B3DBFF" transform="translate(134,430)"/>
<path d="M0 0 C2.886119 2.27248155 2.9919176 2.95069738 3.625 6.8125 C3.43036904 13.75052111 -0.41040551 20.21206713 -4 26 C-7.7205836 28.48038907 -9.59796571 28.46337203 -14 28 C-16.4375 26.5 -16.4375 26.5 -18 24 C-19.43000587 16.27796828 -15.86482542 8.59786899 -12 2 C-7.75796091 -1.29342563 -5.19354765 -1.34647532 0 0 Z " fill="#B4DBFF" transform="translate(113,344)"/>
<path d="M0 0 C1.9375 1.625 1.9375 1.625 3 4 C3.4078182 9.46877515 2.43642356 13.24936789 0.25 18.25 C-0.26046875 19.45140625 -0.7709375 20.6528125 -1.296875 21.890625 C-2.96665339 24.93911948 -3.98904821 26.34864466 -7 28 C-10.88040089 28.48505011 -13.0761612 28.56851618 -16.4375 26.5 C-18.71636731 22.8538123 -18.8315895 20.09542199 -18 16 C-13.79759377 3.39278132 -13.79759377 3.39278132 -9.51953125 0.078125 C-5.95258615 -1.44819569 -3.69560034 -1.02655565 0 0 Z " fill="#B4DBFF" transform="translate(37,387)"/>
<path d="M0 0 C0.66 0.33 1.32 0.66 2 1 C-4.93 7.93 -11.86 14.86 -19 22 C-19 17.83256273 -16.7220201 16.1175327 -14 13.25 C-13.50395264 12.71793945 -13.00790527 12.18587891 -12.49682617 11.63769531 C-8.56892151 7.476431 -4.4406485 3.61359362 0 0 Z " fill="#9AD0FF" transform="translate(227,77)"/>
</svg>
