<?xml version="1.0" encoding="UTF-8"?>
<svg version="1.1" xmlns="http://www.w3.org/2000/svg" width="512" height="512">
<path d="M0 0 C2.00775748 1.76393685 3.9737018 3.56119487 5.9375 5.375 C6.61167969 5.97957031 7.28585937 6.58414062 7.98046875 7.20703125 C21.40146615 19.82952537 30.52128615 36.9560208 35.9375 54.375 C37.10023438 54.40078125 38.26296875 54.4265625 39.4609375 54.453125 C66.80918213 55.31469124 92.05328185 63.26149072 112.9375 81.375 C113.74574219 82.03886719 114.55398438 82.70273438 115.38671875 83.38671875 C134.80957382 99.88242455 147.95539417 124.48939776 151.73828125 149.66796875 C152.1723829 155.56664415 152.08103088 161.46631202 151.9375 167.375 C152.48535156 167.38917969 153.03320312 167.40335938 153.59765625 167.41796875 C174.56810032 168.67960522 192.83999618 180.64416622 206.64599609 195.84521484 C218.74025159 210.17084905 224.55155612 228.68497066 224.375 247.1875 C224.36597656 248.32751465 224.35695313 249.4675293 224.34765625 250.64208984 C223.97277 268.94122469 217.40502875 286.73786277 204.9375 300.375 C204.13699219 301.26703125 203.33648437 302.1590625 202.51171875 303.078125 C193.11823511 313.0289644 181.97145298 320.06083778 168.9375 324.375 C167.89665772 324.74625047 167.89665772 324.74625047 166.83478832 325.12500095 C155.75630396 328.51052576 144.26988227 327.80321072 132.80395508 327.77905273 C130.35688974 327.78476139 127.90982707 327.79172756 125.46276855 327.79985046 C119.52703457 327.81589021 113.59139849 327.81789278 107.65565441 327.81263756 C102.82484015 327.80858035 97.99405704 327.81005774 93.16324425 327.81538582 C92.12812199 327.81650845 92.12812199 327.81650845 91.07208818 327.81765376 C89.66971701 327.81918541 88.26734585 327.82072375 86.8649747 327.82226873 C73.73886004 327.83596942 60.61280512 327.83057399 47.48669185 327.81908352 C35.51317304 327.80916115 23.53980897 327.82207885 11.56631402 327.84601771 C-0.76372931 327.87048128 -13.09370078 327.87999837 -25.42376786 327.87336498 C-32.33178953 327.86988786 -39.2396924 327.87200397 -46.14769554 327.88961601 C-52.64934833 327.90598796 -59.15077983 327.90104402 -65.65242767 327.88231087 C-68.02704375 327.87864587 -70.40168196 327.8816718 -72.77627754 327.89219666 C-103.09191814 328.01621482 -127.9255258 320.19979967 -150.125 298.75 C-162.96531194 285.92195392 -171.15587224 269.00078523 -175.0625 251.375 C-175.0625 250.055 -175.0625 248.735 -175.0625 247.375 C-175.91255615 247.39594727 -176.7626123 247.41689453 -177.63842773 247.43847656 C-208.9409491 248.10786796 -234.87442886 244.0417355 -258.69140625 221.7109375 C-277.15797035 203.51817748 -287.88716835 181.01705487 -288.53540039 155.05615234 C-288.74466328 126.63033416 -280.30121673 102.9183128 -260.0625 82.375 C-237.49201365 59.76677036 -210.6275188 54.78389657 -180.0625 54.375 C-179.7221875 53.38242188 -179.381875 52.38984375 -179.03125 51.3671875 C-173.93180819 36.90413092 -167.21565769 25.01579985 -157.0625 13.375 C-156.52367187 12.69179688 -155.98484375 12.00859375 -155.4296875 11.3046875 C-142.14465119 -5.18477968 -121.87694581 -15.46841571 -102.0625 -21.625 C-100.91136719 -21.98722656 -99.76023438 -22.34945313 -98.57421875 -22.72265625 C-65.15078498 -31.16688452 -26.23001509 -22.33870711 0 0 Z " fill="#9FCDF0" transform="translate(288.0625,24.625)"/>
<path d="M0 0 C2.00775748 1.76393685 3.9737018 3.56119487 5.9375 5.375 C6.61167969 5.97957031 7.28585937 6.58414062 7.98046875 7.20703125 C21.71382629 20.12330115 30.81193306 37.44839403 35.9375 55.375 C35.10895508 55.47204224 35.10895508 55.47204224 34.26367188 55.57104492 C2.31482177 59.4256856 -26.33859114 71.57592281 -47.11938477 97.13696289 C-56.23145638 108.8428655 -62.26940526 121.39514035 -67.0625 135.375 C-67.92862915 135.39687378 -67.92862915 135.39687378 -68.81225586 135.41918945 C-101.25631463 136.32853566 -127.85871527 143.04584645 -151.203125 167.27734375 C-154.57146628 171.07734221 -157.38730457 175.06089537 -160.0625 179.375 C-160.42520996 179.95862305 -160.78791992 180.54224609 -161.16162109 181.14355469 C-174.44903485 202.98603157 -176.08807468 226.4760128 -174.0625 251.375 C-174.3925 250.055 -174.7225 248.735 -175.0625 247.375 C-175.91255615 247.39594727 -176.7626123 247.41689453 -177.63842773 247.43847656 C-208.9409491 248.10786796 -234.87442886 244.0417355 -258.69140625 221.7109375 C-277.15797035 203.51817748 -287.88716835 181.01705487 -288.53540039 155.05615234 C-288.74466328 126.63033416 -280.30121673 102.9183128 -260.0625 82.375 C-237.49201365 59.76677036 -210.6275188 54.78389657 -180.0625 54.375 C-179.7221875 53.38242188 -179.381875 52.38984375 -179.03125 51.3671875 C-173.93180819 36.90413092 -167.21565769 25.01579985 -157.0625 13.375 C-156.52367187 12.69179688 -155.98484375 12.00859375 -155.4296875 11.3046875 C-142.14465119 -5.18477968 -121.87694581 -15.46841571 -102.0625 -21.625 C-100.91136719 -21.98722656 -99.76023438 -22.34945313 -98.57421875 -22.72265625 C-65.15078498 -31.16688452 -26.23001509 -22.33870711 0 0 Z " fill="#378AC9" transform="translate(288.0625,24.625)"/>
<path d="M0 0 C4.28989694 1.17913985 7.14396352 4.47055265 10.16015625 7.59375 C10.73121094 8.16480469 11.30226563 8.73585938 11.890625 9.32421875 C12.30957031 9.74316406 12.72851562 10.16210938 13.16015625 10.59375 C16.34575577 9.19741893 18.3995947 7.54817507 20.78515625 5.03125 C24.00732982 1.64726422 25.18747753 0.67219183 30.03515625 0.28125 C32.98984278 0.34034373 34.05074018 0.52810036 36.66015625 2.09375 C38.3488462 4.90823325 38.91124786 7.15963044 38.734375 10.453125 C37.57460543 14.77661974 34.29872871 17.56097212 31.16015625 20.59375 C29.69946641 22.00798681 28.24108572 23.42461297 26.78515625 24.84375 C26.11742187 25.46765625 25.4496875 26.0915625 24.76171875 26.734375 C23.05128851 28.72014279 22.55675193 30.03287502 22.16015625 32.59375 C27.35961237 31.12073335 30.23857514 27.82834666 33.84765625 24.03125 C34.99523725 22.84036405 36.1448824 21.65146271 37.296875 20.46484375 C37.79920654 19.93818115 38.30153809 19.41151855 38.8190918 18.86889648 C41.61795083 16.20761108 44.41810138 16.2489089 48.18359375 16.32421875 C50.16015625 16.59375 50.16015625 16.59375 52.66015625 18.09375 C54.34291364 20.89834565 54.90114181 23.15146772 54.75390625 26.43359375 C53.5747664 30.72349069 50.2833536 33.57755727 47.16015625 36.59375 C46.58910156 37.16480469 46.01804687 37.73585938 45.4296875 38.32421875 C45.01074219 38.74316406 44.59179688 39.16210938 44.16015625 39.59375 C45.55648732 42.77934952 47.20573118 44.83318845 49.72265625 47.21875 C53.10664203 50.44092357 54.08171442 51.62107128 54.47265625 56.46875 C54.41356252 59.42343653 54.22580589 60.48433393 52.66015625 63.09375 C49.845673 64.78243995 47.59427581 65.34484161 44.30078125 65.16796875 C39.97728651 64.00819918 37.19293413 60.73232246 34.16015625 57.59375 C32.74591944 56.13306016 31.32929328 54.67467947 29.91015625 53.21875 C29.28625 52.55101562 28.66234375 51.88328125 28.01953125 51.1953125 C26.03376346 49.48488226 24.72103123 48.99034568 22.16015625 48.59375 C23.6331729 53.79320612 26.92555959 56.67216889 30.72265625 60.28125 C31.9135422 61.428831 33.10244354 62.57847615 34.2890625 63.73046875 C35.0790564 64.48396606 35.0790564 64.48396606 35.88500977 65.25268555 C38.54629517 68.05154458 38.50499735 70.85169513 38.4296875 74.6171875 C38.16015625 76.59375 38.16015625 76.59375 36.66015625 79.09375 C33.8555606 80.77650739 31.60243853 81.33473556 28.3203125 81.1875 C24.03041556 80.00836015 21.17634898 76.71694735 18.16015625 73.59375 C17.58910156 73.02269531 17.01804687 72.45164062 16.4296875 71.86328125 C16.01074219 71.44433594 15.59179688 71.02539062 15.16015625 70.59375 C11.97455673 71.99008107 9.9207178 73.63932493 7.53515625 76.15625 C4.31298268 79.54023578 3.13283497 80.51530817 -1.71484375 80.90625 C-4.66953028 80.84715627 -5.73042768 80.65939964 -8.33984375 79.09375 C-10.0285337 76.27926675 -10.59093536 74.02786956 -10.4140625 70.734375 C-9.25429293 66.41088026 -5.97841621 63.62652788 -2.83984375 60.59375 C-1.37915391 59.17951319 0.07922678 57.76288703 1.53515625 56.34375 C2.20289063 55.71984375 2.870625 55.0959375 3.55859375 54.453125 C5.26902399 52.46735721 5.76356057 51.15462498 6.16015625 48.59375 C0.96070013 50.06676665 -1.91826264 53.35915334 -5.52734375 57.15625 C-6.67492475 58.34713595 -7.8245699 59.53603729 -8.9765625 60.72265625 C-9.47889404 61.24931885 -9.98122559 61.77598145 -10.4987793 62.31860352 C-13.29763833 64.97988892 -16.09778888 64.9385911 -19.86328125 64.86328125 C-21.83984375 64.59375 -21.83984375 64.59375 -24.33984375 63.09375 C-26.02260114 60.28915435 -26.58082931 58.03603228 -26.43359375 54.75390625 C-25.2544539 50.46400931 -21.9630411 47.60994273 -18.83984375 44.59375 C-18.26878906 44.02269531 -17.69773437 43.45164062 -17.109375 42.86328125 C-16.69042969 42.44433594 -16.27148438 42.02539062 -15.83984375 41.59375 C-17.23617482 38.40815048 -18.88541868 36.35431155 -21.40234375 33.96875 C-24.78632953 30.74657643 -25.76140192 29.56642872 -26.15234375 24.71875 C-26.09325002 21.76406347 -25.90549339 20.70316607 -24.33984375 18.09375 C-21.5253605 16.40506005 -19.27396331 15.84265839 -15.98046875 16.01953125 C-11.65697401 17.17930082 -8.87262163 20.45517754 -5.83984375 23.59375 C-4.42560694 25.05443984 -3.00898078 26.51282053 -1.58984375 27.96875 C-0.9659375 28.63648438 -0.34203125 29.30421875 0.30078125 29.9921875 C2.28654904 31.70261774 3.59928127 32.19715432 6.16015625 32.59375 C4.6871396 27.39429388 1.39475291 24.51533111 -2.40234375 20.90625 C-3.5932297 19.758669 -4.78213104 18.60902385 -5.96875 17.45703125 C-6.4954126 16.95469971 -7.0220752 16.45236816 -7.56469727 15.93481445 C-10.22598267 13.13595542 -10.18468485 10.33580487 -10.109375 6.5703125 C-9.83984375 4.59375 -9.83984375 4.59375 -8.33984375 2.09375 C-5.5352481 0.41099261 -3.28212603 -0.14723556 0 0 Z " fill="#9CCBF0" transform="translate(297.83984375,431.40625)"/>
<path d="M0 0 C4.28989694 1.17913985 7.14396352 4.47055265 10.16015625 7.59375 C10.73121094 8.16480469 11.30226562 8.73585938 11.890625 9.32421875 C12.30957031 9.74316406 12.72851562 10.16210938 13.16015625 10.59375 C16.34575577 9.19741893 18.3995947 7.54817507 20.78515625 5.03125 C24.00732982 1.64726422 25.18747753 0.67219183 30.03515625 0.28125 C32.98984278 0.34034373 34.05074018 0.52810036 36.66015625 2.09375 C38.3488462 4.90823325 38.91124786 7.15963044 38.734375 10.453125 C37.57460543 14.77661974 34.29872871 17.56097212 31.16015625 20.59375 C29.69946641 22.00798681 28.24108572 23.42461297 26.78515625 24.84375 C26.11742187 25.46765625 25.4496875 26.0915625 24.76171875 26.734375 C23.05128851 28.72014279 22.55675193 30.03287502 22.16015625 32.59375 C27.35961237 31.12073335 30.23857514 27.82834666 33.84765625 24.03125 C34.99523725 22.84036405 36.1448824 21.65146271 37.296875 20.46484375 C37.79920654 19.93818115 38.30153809 19.41151855 38.8190918 18.86889648 C41.61795083 16.20761108 44.41810138 16.2489089 48.18359375 16.32421875 C50.16015625 16.59375 50.16015625 16.59375 52.66015625 18.09375 C54.34291364 20.89834565 54.90114181 23.15146772 54.75390625 26.43359375 C53.5747664 30.72349069 50.2833536 33.57755727 47.16015625 36.59375 C46.58910156 37.16480469 46.01804687 37.73585938 45.4296875 38.32421875 C45.01074219 38.74316406 44.59179688 39.16210938 44.16015625 39.59375 C45.55648732 42.77934952 47.20573118 44.83318845 49.72265625 47.21875 C53.10664203 50.44092357 54.08171442 51.62107128 54.47265625 56.46875 C54.41356252 59.42343653 54.22580589 60.48433393 52.66015625 63.09375 C49.845673 64.78243995 47.59427581 65.34484161 44.30078125 65.16796875 C39.97728651 64.00819918 37.19293413 60.73232246 34.16015625 57.59375 C32.74591944 56.13306016 31.32929328 54.67467947 29.91015625 53.21875 C29.28625 52.55101562 28.66234375 51.88328125 28.01953125 51.1953125 C26.03376346 49.48488226 24.72103123 48.99034568 22.16015625 48.59375 C23.6331729 53.79320612 26.92555959 56.67216889 30.72265625 60.28125 C31.9135422 61.428831 33.10244354 62.57847615 34.2890625 63.73046875 C35.0790564 64.48396606 35.0790564 64.48396606 35.88500977 65.25268555 C38.54629517 68.05154458 38.50499735 70.85169513 38.4296875 74.6171875 C38.16015625 76.59375 38.16015625 76.59375 36.66015625 79.09375 C33.8555606 80.77650739 31.60243853 81.33473556 28.3203125 81.1875 C24.03041556 80.00836015 21.17634898 76.71694735 18.16015625 73.59375 C17.58910156 73.02269531 17.01804688 72.45164062 16.4296875 71.86328125 C16.01074219 71.44433594 15.59179688 71.02539062 15.16015625 70.59375 C11.97455673 71.99008107 9.9207178 73.63932493 7.53515625 76.15625 C4.31298268 79.54023578 3.13283497 80.51530817 -1.71484375 80.90625 C-4.66953028 80.84715627 -5.73042768 80.65939964 -8.33984375 79.09375 C-10.0285337 76.27926675 -10.59093536 74.02786956 -10.4140625 70.734375 C-9.25429293 66.41088026 -5.97841621 63.62652788 -2.83984375 60.59375 C-1.37915391 59.17951319 0.07922678 57.76288703 1.53515625 56.34375 C2.20289063 55.71984375 2.870625 55.0959375 3.55859375 54.453125 C5.26902399 52.46735721 5.76356057 51.15462498 6.16015625 48.59375 C0.96070013 50.06676665 -1.91826264 53.35915334 -5.52734375 57.15625 C-6.67492475 58.34713595 -7.8245699 59.53603729 -8.9765625 60.72265625 C-9.47889404 61.24931885 -9.98122559 61.77598145 -10.4987793 62.31860352 C-13.29763833 64.97988892 -16.09778888 64.9385911 -19.86328125 64.86328125 C-21.83984375 64.59375 -21.83984375 64.59375 -24.33984375 63.09375 C-26.02260114 60.28915435 -26.58082931 58.03603228 -26.43359375 54.75390625 C-25.2544539 50.46400931 -21.9630411 47.60994273 -18.83984375 44.59375 C-18.26878906 44.02269531 -17.69773438 43.45164062 -17.109375 42.86328125 C-16.69042969 42.44433594 -16.27148438 42.02539062 -15.83984375 41.59375 C-17.23617482 38.40815048 -18.88541868 36.35431155 -21.40234375 33.96875 C-24.78632953 30.74657643 -25.76140192 29.56642872 -26.15234375 24.71875 C-26.09325002 21.76406347 -25.90549339 20.70316607 -24.33984375 18.09375 C-21.5253605 16.40506005 -19.27396331 15.84265839 -15.98046875 16.01953125 C-11.65697401 17.17930082 -8.87262163 20.45517754 -5.83984375 23.59375 C-4.42560694 25.05443984 -3.00898078 26.51282053 -1.58984375 27.96875 C-0.9659375 28.63648438 -0.34203125 29.30421875 0.30078125 29.9921875 C2.28654904 31.70261774 3.59928127 32.19715432 6.16015625 32.59375 C4.6871396 27.39429388 1.39475291 24.51533111 -2.40234375 20.90625 C-3.5932297 19.758669 -4.78213104 18.60902385 -5.96875 17.45703125 C-6.4954126 16.95469971 -7.0220752 16.45236816 -7.56469727 15.93481445 C-10.22598267 13.13595542 -10.18468485 10.33580487 -10.109375 6.5703125 C-9.83984375 4.59375 -9.83984375 4.59375 -8.33984375 2.09375 C-5.5352481 0.41099261 -3.28212603 -0.14723556 0 0 Z " fill="#9CCBF0" transform="translate(185.83984375,367.40625)"/>
<path d="M0 0 C5.82485779 3.51996782 10.54466582 8.98962934 12.5625 15.5 C13.36764105 23.33608208 13.68710392 31.11922577 8.5625 37.5 C3.75801361 42.54521222 -0.59927055 46.10562995 -7.70703125 46.8359375 C-16.22326573 46.92983204 -22.11345494 46.6177288 -28.40234375 40.62890625 C-34.7841668 33.72505269 -35.91792252 28.29832071 -35.7421875 18.9453125 C-35.04689797 11.08319245 -31.38995981 6.95041296 -25.53515625 1.9453125 C-18.47077988 -2.92213491 -7.84396301 -3.47595223 0 0 Z " fill="#9DCCF0" transform="translate(131.4375,441.5)"/>
<path d="M0 0 C4.8846525 2.26787438 7.73212562 5.1153475 10 10 C10.75381535 15.5997712 10.77303575 20.33499991 8.375 25.5 C3.80134327 30.3143755 0.6912538 32.25156236 -6 32.5 C-12.6912538 32.25156236 -15.80134327 30.3143755 -20.375 25.5 C-22.77303575 20.33499991 -22.75381535 15.5997712 -22 10 C-17.52212837 0.3553534 -9.85292056 -1.32635469 0 0 Z " fill="#9DCCF0" transform="translate(230,472)"/>
<path d="M0 0 C4.8846525 2.26787438 7.73212562 5.1153475 10 10 C10.75381535 15.5997712 10.77303575 20.33499991 8.375 25.5 C3.80134327 30.3143755 0.6912538 32.25156236 -6 32.5 C-12.6912538 32.25156236 -15.80134327 30.3143755 -20.375 25.5 C-22.77303575 20.33499991 -22.75381535 15.5997712 -22 10 C-17.52212837 0.3553534 -9.85292056 -1.32635469 0 0 Z " fill="#9DCCF0" transform="translate(430,456)"/>
<path d="M0 0 C4.8846525 2.26787438 7.73212562 5.1153475 10 10 C10.75381535 15.5997712 10.77303575 20.33499991 8.375 25.5 C3.80134327 30.3143755 0.6912538 32.25156236 -6 32.5 C-12.6912538 32.25156236 -15.80134327 30.3143755 -20.375 25.5 C-22.77303575 20.33499991 -22.75381535 15.5997712 -22 10 C-17.52212837 0.3553534 -9.85292056 -1.32635469 0 0 Z " fill="#9DCCF0" transform="translate(382,400)"/>
<path d="M0 0 C4.8846525 2.26787438 7.73212562 5.1153475 10 10 C10.75381535 15.5997712 10.77303575 20.33499991 8.375 25.5 C3.80134327 30.3143755 0.6912538 32.25156236 -6 32.5 C-12.6912538 32.25156236 -15.80134327 30.3143755 -20.375 25.5 C-22.77303575 20.33499991 -22.75381535 15.5997712 -22 10 C-17.52212837 0.3553534 -9.85292056 -1.32635469 0 0 Z " fill="#9DCCF0" transform="translate(446,376)"/>
<path d="M0 0 C4.8846525 2.26787438 7.73212562 5.1153475 10 10 C10.75381535 15.5997712 10.77303575 20.33499991 8.375 25.5 C3.80134327 30.3143755 0.6912538 32.25156236 -6 32.5 C-12.6912538 32.25156236 -15.80134327 30.3143755 -20.375 25.5 C-22.77303575 20.33499991 -22.75381535 15.5997712 -22 10 C-17.52212837 0.3553534 -9.85292056 -1.32635469 0 0 Z " fill="#9DCCF0" transform="translate(294,376)"/>
<path d="M0 0 C4.8846525 2.26787438 7.73212562 5.1153475 10 10 C10.75381535 15.5997712 10.77303575 20.33499991 8.375 25.5 C3.80134327 30.3143755 0.6912538 32.25156236 -6 32.5 C-12.6912538 32.25156236 -15.80134327 30.3143755 -20.375 25.5 C-22.77303575 20.33499991 -22.75381535 15.5997712 -22 10 C-17.52212837 0.3553534 -9.85292056 -1.32635469 0 0 Z " fill="#9DCCF0" transform="translate(94,368)"/>
</svg>
